<svg xmlns="http://www.w3.org/2000/svg" width="33.6" height="33.6" viewBox="0 0 33.6 33.6">
  <g id="Layer_1" transform="translate(-2 -2)">
    <g id="Group_5138" data-name="Group 5138" transform="translate(20 17.6)">
      <path id="Path_4673" data-name="Path 4673" d="M29.637,33H19.963A2.967,2.967,0,0,1,17,30.037V17.963A2.967,2.967,0,0,1,19.963,15h9.675A2.967,2.967,0,0,1,32.6,17.963V30.037A2.967,2.967,0,0,1,29.637,33ZM19.963,17.4a.559.559,0,0,0-.559.559V30.037a.559.559,0,0,0,.559.559h9.675a.559.559,0,0,0,.559-.559V17.963a.559.559,0,0,0-.559-.559Z" transform="translate(-17 -15)" fill="#2c2863"/>
    </g>
    <g id="Group_5139" data-name="Group 5139" transform="translate(20 2)">
      <path id="Path_4674" data-name="Path 4674" d="M29.637,15.2H19.963A2.967,2.967,0,0,1,17,12.237V4.963A2.967,2.967,0,0,1,19.963,2h9.675A2.967,2.967,0,0,1,32.6,4.963v7.274A2.967,2.967,0,0,1,29.637,15.2ZM19.963,4.4a.559.559,0,0,0-.559.559V12.23a.559.559,0,0,0,.559.559h9.675a.559.559,0,0,0,.559-.559V4.963a.559.559,0,0,0-.559-.559Z" transform="translate(-17 -2)" fill="#2c2863"/>
    </g>
    <g id="Group_5140" data-name="Group 5140" transform="translate(2 2)">
      <path id="Path_4675" data-name="Path 4675" d="M14.637,20H4.963A2.967,2.967,0,0,1,2,17.037V4.963A2.967,2.967,0,0,1,4.963,2h9.675A2.967,2.967,0,0,1,17.6,4.963V17.037A2.967,2.967,0,0,1,14.637,20ZM4.963,4.4a.559.559,0,0,0-.559.559V17.037a.559.559,0,0,0,.559.559h9.675a.559.559,0,0,0,.559-.559V4.963a.559.559,0,0,0-.559-.559Z" transform="translate(-2 -2)" fill="#2c2863"/>
    </g>
    <g id="Group_5141" data-name="Group 5141" transform="translate(2 22.4)">
      <path id="Path_4676" data-name="Path 4676" d="M14.637,32.2H4.963A2.967,2.967,0,0,1,2,29.237V21.963A2.967,2.967,0,0,1,4.963,19h9.675A2.967,2.967,0,0,1,17.6,21.963v7.274A2.967,2.967,0,0,1,14.637,32.2ZM4.963,21.4a.559.559,0,0,0-.559.559V29.23a.559.559,0,0,0,.559.559h9.675a.559.559,0,0,0,.559-.559V21.963a.559.559,0,0,0-.559-.559Z" transform="translate(-2 -19)" fill="#2c2863"/>
    </g>
  </g>
</svg>
