<svg id="analytics" xmlns="http://www.w3.org/2000/svg" width="101.825" height="101.825" viewBox="0 0 101.825 101.825">
  <g id="Group_2416" data-name="Group 2416" transform="translate(0 38.184)">
    <g id="Group_2415" data-name="Group 2415">
      <path id="Path_4309" data-name="Path 4309" d="M0,177.231v63.641H21.426V177.231Zm17.183,59.4H4.243V181.474h12.94Z" transform="translate(0 -177.231)" fill="#fff"/>
    </g>
  </g>
  <g id="Group_2418" data-name="Group 2418" transform="translate(26.729 63.641)">
    <g id="Group_2417" data-name="Group 2417">
      <path id="Path_4310" data-name="Path 4310" d="M124.062,295.385v38.184h21.426V295.385Zm17.183,33.942H128.3v-29.7h12.94Z" transform="translate(-124.062 -295.385)" fill="#fff"/>
    </g>
  </g>
  <g id="Group_2420" data-name="Group 2420" transform="translate(80.399 78.49)">
    <g id="Group_2419" data-name="Group 2419">
      <path id="Path_4311" data-name="Path 4311" d="M373.169,364.308v23.335h21.426V364.308ZM390.352,383.4h-12.94V368.551h12.94Z" transform="translate(-373.169 -364.308)" fill="#fff"/>
    </g>
  </g>
  <g id="Group_2422" data-name="Group 2422" transform="translate(53.67 31.82)">
    <g id="Group_2421" data-name="Group 2421">
      <path id="Path_4312" data-name="Path 4312" d="M249.108,147.692v70h21.426v-70Zm17.183,65.762h-12.94V151.935h12.94Z" transform="translate(-249.108 -147.692)" fill="#fff"/>
    </g>
  </g>
  <g id="Group_2424" data-name="Group 2424" transform="translate(36.577 5.81)">
    <g id="Group_2423" data-name="Group 2423">
      <rect id="Rectangle_1573" data-name="Rectangle 1573" width="25.456" height="4.243" transform="matrix(0.864, -0.503, 0.503, 0.864, 0, 12.794)" fill="#fff"/>
    </g>
  </g>
  <g id="Group_2426" data-name="Group 2426" transform="translate(9.115 11.55)">
    <g id="Group_2425" data-name="Group 2425" transform="translate(0 0)">
      <rect id="Rectangle_1574" data-name="Rectangle 1574" width="4.242" height="21.637" transform="translate(0 3.964) rotate(-69.138)" fill="#fff"/>
    </g>
  </g>
  <g id="Group_2428" data-name="Group 2428" transform="translate(66.399 6.364)">
    <g id="Group_2427" data-name="Group 2427">
      <path id="Path_4313" data-name="Path 4313" d="M310.518,29.539l-2.333,3.394L333,50.116l.636.424h.636V48.419l1.061-1.7Z" transform="translate(-308.185 -29.539)" fill="#fff"/>
    </g>
  </g>
  <g id="Group_2430" data-name="Group 2430" transform="translate(0 4.455)">
    <g id="Group_2429" data-name="Group 2429">
      <path id="Path_4314" data-name="Path 4314" d="M6.364,20.677a6.364,6.364,0,0,0,0,12.728,6.364,6.364,0,0,0,0-12.728Zm0,8.486a2.121,2.121,0,0,1,0-4.243,2.121,2.121,0,1,1,0,4.243Z" transform="translate(0 -20.677)" fill="#fff"/>
    </g>
  </g>
  <g id="Group_2432" data-name="Group 2432" transform="translate(27.578 16.335)">
    <g id="Group_2431" data-name="Group 2431">
      <path id="Path_4315" data-name="Path 4315" d="M139.88,79a6.6,6.6,0,0,0-5.516-3.182,6.391,6.391,0,0,0-5.94,4.031A10.94,10.94,0,0,0,128,82.18a6.25,6.25,0,0,0,6.364,6.364,6.382,6.382,0,0,0,6.364-6.364A5.985,5.985,0,0,0,139.88,79Zm-5.516,5.3a2,2,0,0,1-2.121-2.121c0-.212.212-.424.212-.636a2.037,2.037,0,0,1,1.909-1.485,2.228,2.228,0,0,1,1.909,1.061,1.912,1.912,0,0,1,.212,1.061A2,2,0,0,1,134.364,84.3Z" transform="translate(-128 -75.816)" fill="#fff"/>
    </g>
  </g>
  <g id="Group_2434" data-name="Group 2434" transform="translate(57.277)">
    <g id="Group_2433" data-name="Group 2433">
      <path id="Path_4316" data-name="Path 4316" d="M272.21,0a6.224,6.224,0,0,0-5.94,8.485,6.313,6.313,0,0,0,11.668.636,6.532,6.532,0,0,0,.636-2.758A6.25,6.25,0,0,0,272.21,0Zm1.909,7.213A2.016,2.016,0,0,1,270.3,7a.779.779,0,0,1-.212-.636,2.121,2.121,0,0,1,4.243,0A1.274,1.274,0,0,1,274.119,7.213Z" transform="translate(-265.846)" fill="#fff"/>
    </g>
  </g>
  <g id="Group_2436" data-name="Group 2436" transform="translate(89.097 21.85)">
    <g id="Group_2435" data-name="Group 2435">
      <path id="Path_4317" data-name="Path 4317" d="M419.9,101.415a6.364,6.364,0,1,0,6.364,6.364A6.25,6.25,0,0,0,419.9,101.415Zm0,8.486a2.121,2.121,0,1,1,2.121-2.121A2,2,0,0,1,419.9,109.9Z" transform="translate(-413.539 -101.415)" fill="#fff"/>
    </g>
  </g>
</svg>
