<svg height="512pt" viewBox="0 0 512 512" width="512pt" xmlns="http://www.w3.org/2000/svg"><path fill="#ddd" d="m477.867188 0h-443.734376c-18.851562 0-34.132812 15.28125-34.132812 34.132812v341.332032c0 18.851562 15.28125 34.136718 34.132812 34.136718h133.753907l-12.1875 42.664063h-2.097657c-23.554687.027344-42.640624 19.117187-42.667968 42.667969 0 9.425781 7.640625 17.066406 17.066406 17.066406h256c9.425781 0 17.066406-7.640625 17.066406-17.066406-.027344-23.550782-19.113281-42.640625-42.667968-42.667969h-2.097657l-12.1875-42.664063h133.753907c18.851562 0 34.132812-15.285156 34.132812-34.136718v-341.332032c0-18.851562-15.28125-34.132812-34.132812-34.132812zm-93.867188 494.933594h-256c0-14.140625 11.460938-25.601563 25.601562-25.601563h204.796876c14.128906.023438 25.578124 11.472657 25.601562 25.601563zm-45.457031-42.667969h-165.09375l12.183593-42.664063h140.734376zm156.390625-76.800781c0 9.425781-7.640625 17.070312-17.066406 17.070312h-443.734376c-9.425781 0-17.066406-7.644531-17.066406-17.070312v-341.332032c0-9.425781 7.640625-17.066406 17.066406-17.066406h443.734376c9.425781 0 17.066406 7.640625 17.066406 17.066406zm0 0"/><path fill="#ddd" d="m452.265625 34.132812h-392.53125c-14.140625 0-25.601563 11.460938-25.601563 25.601563v256c0 14.136719 11.460938 25.597656 25.601563 25.597656h392.53125c14.140625 0 25.601563-11.460937 25.601563-25.597656v-256c0-14.140625-11.460938-25.601563-25.601563-25.601563zm8.535156 281.601563c0 4.710937-3.820312 8.53125-8.535156 8.53125h-392.53125c-4.714844 0-8.535156-3.820313-8.535156-8.53125v-256c0-4.714844 3.820312-8.535156 8.535156-8.535156h392.53125c4.714844 0 8.535156 3.820312 8.535156 8.535156zm0 0"/><path fill="#ddd" d="m298.667969 358.398438h-85.335938c-4.710937 0-8.53125 3.820312-8.53125 8.535156 0 4.710937 3.820313 8.53125 8.53125 8.53125h85.335938c4.710937 0 8.53125-3.820313 8.53125-8.53125 0-4.714844-3.820313-8.535156-8.53125-8.535156zm0 0"/><path fill="#ddd" d="m383.941406 213.027344c0-4.328125-.179687-8.671875-.625-13.046875-2.902344-27.71875-14.851562-53.707031-34.003906-73.953125-.769531-2.394532-2.617188-4.289063-4.992188-5.117188-22.351562-21.457031-51.738281-34.058594-82.6875-35.457031-1.648437-.070313-3.269531.042969-4.898437 0-.257813 0-.476563-.144531-.734375-.144531s-.503906.128906-.777344.152344c-32.726562.019531-64.171875 12.707031-87.746094 35.40625l-.105468.117187c-2.203125.890625-3.910156 2.691406-4.675782 4.941406-40.167968 42.644531-46.113281 107.175781-14.410156 156.441407 3.152344 4.871093 8.574219 7.800781 14.378906 7.765624h186.683594c5.792969.042969 11.207032-2.875 14.359375-7.738281 13.21875-20.460937 20.242188-44.308593 20.214844-68.667969 0-.136718.078125-.257812.078125-.394531s-.058594-.203125-.058594-.304687zm-146.40625-34.1875 20.574219 43.238281c-6.792969-.621094-13.597656 1.007813-19.371094 4.636719zm3.914063 68.21875c2.359375-3.871094 6.171875-6.636719 10.582031-7.679688 1.300781-.300781 2.632812-.453125 3.96875-.445312 7.890625.011718 14.742188 5.433594 16.570312 13.105468 1.789063 7.515626-1.6875 15.292969-8.480468 18.964844-6.789063 3.675782-15.203125 2.332032-20.511719-3.273437-5.3125-5.609375-6.195313-14.082031-2.152344-20.664063zm107.898437 26.007812h-63.898437c6.84375-11.667968 6.101562-26.289062-1.886719-37.203125l-34.988281-73.542969c-3.828125-5.113281-10.359375-7.421874-16.550781-5.847656-6.191407 1.574219-10.832032 6.71875-11.753907 13.042969l2.023438 81.066406c-1.277344 7.761719.234375 15.722657 4.265625 22.476563h-63.894532v.078125c-9.925781-15.390625-15.851562-33.011719-17.246093-51.269531h25.25c4.710937 0 8.53125-3.820313 8.53125-8.535157 0-4.710937-3.820313-8.53125-8.53125-8.53125h-25.175781c1.679687-23.269531 10.746093-45.390625 25.875-63.148437l9.472656 9.480468c3.347656 3.234376 8.667968 3.1875 11.960937-.101562 3.292969-3.292969 3.335938-8.613281.105469-11.964844l-9.441406-9.488281c17.871094-15.621094 40.332031-25.019531 64-26.777344v25.199219c0 4.710938 3.824218 8.535156 8.535156 8.535156s8.535156-3.824218 8.535156-8.535156v-25.171875c23.65625 1.832031 46.09375 11.230469 64 26.800781l-9.386718 9.386719c-2.21875 2.144531-3.109376 5.316406-2.328126 8.300781.78125 2.980469 3.109376 5.3125 6.09375 6.09375 2.984376.78125 6.15625-.109375 8.296876-2.328125l9.386718-9.386719c14.5 16.910157 23.503906 37.828126 25.824219 59.980469.101563 1.035157.109375 2.058594.1875 3.089844h-25.277344c-4.710937 0-8.53125 3.820313-8.53125 8.535156 0 4.710938 3.820313 8.53125 8.53125 8.53125h25.242188c-1.335938 18.257813-7.261719 35.878907-17.226563 51.234375zm0 0"/></svg>