<svg xmlns="http://www.w3.org/2000/svg" width="36.073" height="26.039" viewBox="0 0 36.073 26.039">
  <g id="access" transform="translate(0 -69.063)">
    <g id="Group_6439" data-name="Group 6439" transform="translate(0 69.063)">
      <g id="Group_6438" data-name="Group 6438" transform="translate(0 0)">
        <path id="Path_5764" data-name="Path 5764" d="M42.5,282.514h9.828a.522.522,0,1,0,0-1.045H42.5a.522.522,0,1,0,0,1.045Z" transform="translate(-39.018 -266.674)" fill="#fff"/>
        <path id="Path_5765" data-name="Path 5765" d="M42.5,315.7h9.828a.522.522,0,1,0,0-1.045H42.5a.522.522,0,1,0,0,1.045Z" transform="translate(-39.018 -297.552)" fill="#fff"/>
        <path id="Path_5766" data-name="Path 5766" d="M42.5,116.891a.525.525,0,0,0-.528.522v2.7a1.493,1.493,0,0,0,1.5,1.482h7.886a1.493,1.493,0,0,0,1.5-1.482v-7.594a1.493,1.493,0,0,0-1.5-1.482H43.476a1.493,1.493,0,0,0-1.5,1.482v2.449a.529.529,0,0,0,1.057,0v-2.449a.441.441,0,0,1,.443-.438h7.886a.441.441,0,0,1,.443.438v7.594a.441.441,0,0,1-.443.438H51v-.491a3.517,3.517,0,0,0-1.553-2.917,2.393,2.393,0,0,0,.429-1.373,2.455,2.455,0,0,0-4.909,0,2.392,2.392,0,0,0,.429,1.373,3.517,3.517,0,0,0-1.553,2.917v.491h-.365a.441.441,0,0,1-.443-.438v-2.7A.526.526,0,0,0,42.5,116.891Zm4.914-2.5a1.391,1.391,0,0,1,1.4,1.381,1.368,1.368,0,0,1-.542,1.092l-.005,0a1.411,1.411,0,0,1-1.7,0l-.006,0a1.368,1.368,0,0,1-.541-1.092A1.391,1.391,0,0,1,47.418,114.391ZM44.9,120.063a2.482,2.482,0,0,1,1.3-2.183,2.484,2.484,0,0,0,2.436,0,2.482,2.482,0,0,1,1.3,2.183v.491H44.9Z" transform="translate(-39.018 -108.116)" fill="#fff"/>
        <path id="Path_5767" data-name="Path 5767" d="M33.737,72.934V71.084a2.035,2.035,0,0,0-2.044-2.021H2.044A2.035,2.035,0,0,0,0,71.084V89.537a2.035,2.035,0,0,0,2.044,2.021h8.227a.522.522,0,1,0,0-1.045H2.044a.983.983,0,0,1-.987-.976V71.084a.983.983,0,0,1,.987-.976H31.693a.983.983,0,0,1,.987.976V72.16A7.1,7.1,0,0,0,24.07,73.2,6.9,6.9,0,0,0,22.152,79.5a1.655,1.655,0,0,0-1.1.476h0a1.622,1.622,0,0,0-.027,2.282l-8.71,8.611a1.511,1.511,0,0,0-.453,1.074l-.008,1.713A1.443,1.443,0,0,0,13.309,95.1h.007l1.733-.008a1.547,1.547,0,0,0,1.086-.448l.281-.277A1.289,1.289,0,0,0,16.8,93.4l-.04-.989a.25.25,0,0,1,.268-.258l.932.062a1.318,1.318,0,0,0,1.013-.376,2.706,2.706,0,0,0,.49-.551,1.281,1.281,0,0,0,.168-.687l-.04-.989a.25.25,0,0,1,.268-.258l.932.062a1.321,1.321,0,0,0,1.013-.376l.28-.277a1.289,1.289,0,0,0,.382-.966l-.04-.989a.25.25,0,0,1,.268-.258l.932.062a1.317,1.317,0,0,0,1.013-.376l.216-.213a1.666,1.666,0,0,0,2.2-.122,1.613,1.613,0,0,0,.477-1,7.156,7.156,0,0,0,5.153-.839v5.474a.983.983,0,0,1-.987.976H21.413a.522.522,0,1,0,0,1.045H31.693a2.035,2.035,0,0,0,2.044-2.021V83.29A6.907,6.907,0,0,0,33.737,72.934ZM23.695,85.575l-.932-.062a1.3,1.3,0,0,0-1.4,1.342l.04.989a.247.247,0,0,1-.073.185l-.28.277a.251.251,0,0,1-.194.072l-.932-.062a1.3,1.3,0,0,0-1.4,1.342l.04.989a.247.247,0,0,1-.073.185l-.276.273a.251.251,0,0,1-.194.072l-.932-.062a1.3,1.3,0,0,0-1.4,1.342l.04.989a.247.247,0,0,1-.073.185l-.281.277a.49.49,0,0,1-.344.142l-1.733.008h0a.393.393,0,0,1-.4-.392l.008-1.713a.479.479,0,0,1,.143-.34L21.776,83,24.1,85.3l-.209.206a.25.25,0,0,1-.194.072Zm2.609-.408a.6.6,0,0,1-.842,0L21.8,81.55a.584.584,0,0,1,0-.832.6.6,0,0,1,.841,0l0,0L26.3,84.336A.584.584,0,0,1,26.3,85.167Zm.862-1.445c-.083-.1-3.795-3.763-3.8-3.77a5.9,5.9,0,0,1,1.454-6.018,6.027,6.027,0,0,1,8.052-.361,5.871,5.871,0,0,1,0,9.074l0,0A6.058,6.058,0,0,1,27.165,83.722Z" transform="translate(0 -69.063)" fill="#fff"/>
        <path id="Path_5768" data-name="Path 5768" d="M409.236,143.21a2.246,2.246,0,0,0-3.147,0,2.182,2.182,0,0,0,.083,3.189,2.247,2.247,0,0,0,3.064-.078h0A2.181,2.181,0,0,0,409.236,143.21Zm-2.378,2.394h0l-.009-.008,0,0-.011-.01a1.145,1.145,0,0,1,0-1.634,1.179,1.179,0,0,1,1.653,0,1.145,1.145,0,0,1,0,1.633A1.18,1.18,0,0,1,406.858,145.6Z" transform="translate(-376.869 -137.447)" fill="#fff"/>
      </g>
    </g>
  </g>
</svg>
