<svg xmlns="http://www.w3.org/2000/svg" width="40.949" height="29.559" viewBox="0 0 40.949 29.559">
  <g id="access" transform="translate(0 -69.063)">
    <g id="Group_6439" data-name="Group 6439" transform="translate(0 69.063)">
      <g id="Group_6438" data-name="Group 6438" transform="translate(0 0)">
        <path id="Path_5764" data-name="Path 5764" d="M42.576,282.655H53.732a.593.593,0,1,0,0-1.186H42.576a.593.593,0,1,0,0,1.186Z" transform="translate(-38.618 -264.674)" fill="#2c2863"/>
        <path id="Path_5765" data-name="Path 5765" d="M42.576,315.845H53.732a.593.593,0,1,0,0-1.186H42.576a.593.593,0,1,0,0,1.186Z" transform="translate(-38.618 -295.24)" fill="#2c2863"/>
        <path id="Path_5766" data-name="Path 5766" d="M42.576,117.682a.6.6,0,0,0-.6.593v3.069a1.694,1.694,0,0,0,1.7,1.683H52.63a1.694,1.694,0,0,0,1.7-1.683v-8.621a1.694,1.694,0,0,0-1.7-1.683H43.678a1.694,1.694,0,0,0-1.7,1.683v2.78a.6.6,0,0,0,1.2,0v-2.78a.5.5,0,0,1,.5-.5H52.63a.5.5,0,0,1,.5.5v8.621a.5.5,0,0,1-.5.5h-.414v-.558a3.993,3.993,0,0,0-1.762-3.311,2.716,2.716,0,0,0,.487-1.559,2.786,2.786,0,0,0-5.572,0,2.716,2.716,0,0,0,.487,1.559,3.993,3.993,0,0,0-1.762,3.311v.558h-.414a.5.5,0,0,1-.5-.5v-3.069A.6.6,0,0,0,42.576,117.682Zm5.578-2.837a1.579,1.579,0,0,1,1.586,1.568,1.553,1.553,0,0,1-.615,1.24l-.006,0a1.6,1.6,0,0,1-1.93,0l-.007-.005a1.553,1.553,0,0,1-.615-1.24A1.579,1.579,0,0,1,48.154,114.844Zm-2.862,6.438a2.818,2.818,0,0,1,1.479-2.478,2.82,2.82,0,0,0,2.765,0,2.818,2.818,0,0,1,1.479,2.478v.558H45.292Z" transform="translate(-38.618 -107.721)" fill="#2c2863"/>
        <path id="Path_5767" data-name="Path 5767" d="M38.3,73.458v-2.1a2.31,2.31,0,0,0-2.32-2.294H2.32A2.31,2.31,0,0,0,0,71.357V92.3A2.31,2.31,0,0,0,2.32,94.6h9.34a.593.593,0,1,0,0-1.186H2.32A1.115,1.115,0,0,1,1.2,92.3V71.357a1.115,1.115,0,0,1,1.12-1.108H35.977a1.115,1.115,0,0,1,1.12,1.108v1.221a8.056,8.056,0,0,0-9.774,1.176,7.83,7.83,0,0,0-2.178,7.161,1.879,1.879,0,0,0-1.245.54h0a1.841,1.841,0,0,0-.03,2.591l-9.888,9.775a1.716,1.716,0,0,0-.514,1.219l-.01,1.945a1.638,1.638,0,0,0,1.648,1.637h.008l1.967-.01a1.756,1.756,0,0,0,1.233-.508l.319-.315a1.463,1.463,0,0,0,.434-1.1l-.045-1.122a.283.283,0,0,1,.3-.292l1.058.071a1.5,1.5,0,0,0,1.15-.427,3.071,3.071,0,0,0,.556-.625,1.454,1.454,0,0,0,.191-.78l-.045-1.122a.283.283,0,0,1,.3-.292l1.058.071a1.5,1.5,0,0,0,1.15-.427l.318-.315a1.463,1.463,0,0,0,.434-1.1l-.045-1.122a.283.283,0,0,1,.3-.292l1.058.071a1.5,1.5,0,0,0,1.15-.427l.245-.242a1.891,1.891,0,0,0,2.5-.139,1.831,1.831,0,0,0,.541-1.14,8.124,8.124,0,0,0,5.849-.952V92.3a1.115,1.115,0,0,1-1.12,1.108H24.307a.593.593,0,1,0,0,1.186h11.67A2.31,2.31,0,0,0,38.3,92.3V85.213a7.84,7.84,0,0,0,0-11.756ZM26.9,87.807l-1.058-.071a1.478,1.478,0,0,0-1.584,1.523l.045,1.122a.281.281,0,0,1-.083.21l-.318.315a.285.285,0,0,1-.221.082l-1.058-.071a1.478,1.478,0,0,0-1.584,1.523l.045,1.122a.281.281,0,0,1-.083.21l-.313.309a.284.284,0,0,1-.221.082l-1.058-.071a1.478,1.478,0,0,0-1.584,1.523l.045,1.122a.281.281,0,0,1-.083.21l-.319.315a.556.556,0,0,1-.391.161l-1.967.01h0a.446.446,0,0,1-.448-.445l.01-1.945a.543.543,0,0,1,.163-.386l9.887-9.774,2.636,2.606-.237.234a.283.283,0,0,1-.221.082Zm2.961-.463a.682.682,0,0,1-.955,0L24.75,83.238a.663.663,0,0,1,0-.944.682.682,0,0,1,.955,0l0,0,4.15,4.1A.663.663,0,0,1,29.859,87.344Zm.978-1.641c-.094-.114-4.307-4.271-4.316-4.279a6.7,6.7,0,0,1,1.651-6.831,6.842,6.842,0,0,1,9.141-.41,6.664,6.664,0,0,1,0,10.3l0,0A6.877,6.877,0,0,1,30.837,85.7Z" transform="translate(0 -69.063)" fill="#2c2863"/>
        <path id="Path_5768" data-name="Path 5768" d="M409.749,143.3a2.55,2.55,0,0,0-3.573,0,2.477,2.477,0,0,0,.094,3.62,2.551,2.551,0,0,0,3.479-.088h0A2.476,2.476,0,0,0,409.749,143.3Zm-2.7,2.717h0l-.01-.01,0,0-.012-.012a1.3,1.3,0,0,1,0-1.854,1.339,1.339,0,0,1,1.876,0,1.3,1.3,0,0,1,0,1.854A1.339,1.339,0,0,1,407.05,146.014Z" transform="translate(-373.007 -136.755)" fill="#2c2863"/>
      </g>
    </g>
  </g>
</svg>
