<svg xmlns="http://www.w3.org/2000/svg" width="42.062" height="42.062" viewBox="0 0 42.062 42.062">
  <g id="Layer_1" transform="translate(-2 -2)">
    <g id="Group_5138" data-name="Group 5138" transform="translate(24.533 21.529)">
      <path id="Path_4673" data-name="Path 4673" d="M32.82,37.533H20.709A3.714,3.714,0,0,1,17,33.824V18.709A3.714,3.714,0,0,1,20.709,15H32.82a3.714,3.714,0,0,1,3.709,3.709V33.824A3.714,3.714,0,0,1,32.82,37.533ZM20.709,18a.7.7,0,0,0-.7.7V33.824a.7.7,0,0,0,.7.7H32.82a.7.7,0,0,0,.7-.7V18.709a.7.7,0,0,0-.7-.7Z" transform="translate(-17 -15)" fill="#007cc3"/>
    </g>
    <g id="Group_5139" data-name="Group 5139" transform="translate(24.533 2)">
      <path id="Path_4674" data-name="Path 4674" d="M32.82,18.524H20.709A3.714,3.714,0,0,1,17,14.815V5.709A3.714,3.714,0,0,1,20.709,2H32.82a3.714,3.714,0,0,1,3.709,3.709v9.106A3.714,3.714,0,0,1,32.82,18.524ZM20.709,5a.7.7,0,0,0-.7.7v9.106a.7.7,0,0,0,.7.7H32.82a.7.7,0,0,0,.7-.7V5.709a.7.7,0,0,0-.7-.7Z" transform="translate(-17 -2)" fill="#007cc3"/>
    </g>
    <g id="Group_5140" data-name="Group 5140" transform="translate(2 2)">
      <path id="Path_4675" data-name="Path 4675" d="M17.82,24.533H5.709A3.714,3.714,0,0,1,2,20.824V5.709A3.714,3.714,0,0,1,5.709,2H17.82a3.714,3.714,0,0,1,3.709,3.709V20.824A3.714,3.714,0,0,1,17.82,24.533ZM5.709,5a.7.7,0,0,0-.7.7V20.824a.7.7,0,0,0,.7.7H17.82a.7.7,0,0,0,.7-.7V5.709a.7.7,0,0,0-.7-.7Z" transform="translate(-2 -2)" fill="#007cc3"/>
    </g>
    <g id="Group_5141" data-name="Group 5141" transform="translate(2 27.538)">
      <path id="Path_4676" data-name="Path 4676" d="M17.82,35.524H5.709A3.714,3.714,0,0,1,2,31.815V22.709A3.714,3.714,0,0,1,5.709,19H17.82a3.714,3.714,0,0,1,3.709,3.709v9.106A3.714,3.714,0,0,1,17.82,35.524ZM5.709,22a.7.7,0,0,0-.7.7v9.106a.7.7,0,0,0,.7.7H17.82a.7.7,0,0,0,.7-.7V22.709a.7.7,0,0,0-.7-.7Z" transform="translate(-2 -19)" fill="#007cc3"/>
    </g>
  </g>
</svg>
