<svg xmlns="http://www.w3.org/2000/svg" width="10.109" height="12.447" viewBox="0 0 10.109 12.447">
  <g id="delete" transform="translate(0.003 0.001)">
    <path id="Path_4659" data-name="Path 4659" d="M222.689,154.7a.291.291,0,0,0-.292.291V160.5a.292.292,0,0,0,.583,0v-5.509A.291.291,0,0,0,222.689,154.7Zm0,0" transform="translate(-215.918 -150.195)" fill="#fb0202"/>
    <path id="Path_4660" data-name="Path 4660" d="M104.69,154.7a.291.291,0,0,0-.291.291V160.5a.291.291,0,1,0,.583,0v-5.509A.291.291,0,0,0,104.69,154.7Zm0,0" transform="translate(-101.358 -150.195)" fill="#fb0202"/>
    <path id="Path_4661" data-name="Path 4661" d="M.825,3.7v7.182A1.608,1.608,0,0,0,1.252,12a1.436,1.436,0,0,0,1.042.45H7.809A1.435,1.435,0,0,0,8.851,12a1.608,1.608,0,0,0,.428-1.109V3.7a1.114,1.114,0,0,0-.286-2.19H7.5V1.15A1.145,1.145,0,0,0,6.346,0H3.757A1.145,1.145,0,0,0,2.6,1.15v.364H1.11A1.114,1.114,0,0,0,.825,3.7Zm6.984,8.159H2.294a.923.923,0,0,1-.886-.977V3.73H8.7v7.156a.923.923,0,0,1-.886.977ZM3.186,1.15A.562.562,0,0,1,3.757.582H6.346a.562.562,0,0,1,.571.568v.364H3.186ZM1.11,2.1H8.992a.525.525,0,1,1,0,1.049H1.11a.525.525,0,0,1,0-1.049Zm0,0" transform="translate(0)" fill="#fb0202"/>
    <path id="Path_4662" data-name="Path 4662" d="M163.689,154.7a.291.291,0,0,0-.292.291V160.5a.292.292,0,0,0,.583,0v-5.509A.291.291,0,0,0,163.689,154.7Zm0,0" transform="translate(-158.638 -150.195)" fill="#fb0202"/>
  </g>
</svg>
