<svg xmlns="http://www.w3.org/2000/svg" width="440.562" height="441.768" viewBox="0 0 440.562 441.768">
  <g id="Doc_Pocket_2" data-name="Doc Pocket 2" transform="translate(4538.281 -7885.003)">
    <g id="packet" transform="translate(-4542 7892.744)">
      <path id="Path_4968" data-name="Path 4968" d="M408,95.41v68.684l-8.969-8.969-11.312,11.313L416,194.731l28.281-28.293-11.312-11.312L424,164.094V95.41a56.068,56.068,0,0,0-56-56H240v16H368A40.05,40.05,0,0,1,408,95.41Zm0,0" fill="#fff"/>
      <path id="Path_4969" data-name="Path 4969" d="M40,351.41V282.73l8.969,8.969,11.313-11.312L32,252.094,3.719,280.387,15.031,291.7,24,282.73v68.68a56.063,56.063,0,0,0,56,56H208v-16H80a40.045,40.045,0,0,1-40-40Zm0,0" fill="#fff"/>
      <path id="Path_4970" data-name="Path 4970" d="M240,223.41a16,16,0,1,1-16-16A16,16,0,0,1,240,223.41Zm0,0" fill="#fff"/>
    </g>
    <g id="XMLID_407_" transform="translate(-4355.789 8090.004)">
      <path id="XMLID_418_" d="M241.016,80.08,185.991,25.055A3.635,3.635,0,0,0,183.377,24H91.668A3.679,3.679,0,0,0,88,27.668V233.1a3.679,3.679,0,0,0,3.668,3.668H238.4a3.679,3.679,0,0,0,3.668-3.668V82.693a3.713,3.713,0,0,0-1.052-2.613Zm-53.97-43.562,42.507,42.461H187.045Zm47.688,192.909H95.337V31.337h84.372V82.693a3.679,3.679,0,0,0,3.668,3.668h51.357Z" fill="#fff"/>
      <path id="XMLID_441_" d="M247.874,215.668a3.679,3.679,0,0,1-3.668,3.668H161.668a3.669,3.669,0,0,1,0-7.337h82.538a3.679,3.679,0,0,1,3.668,3.669Z" transform="translate(-37.902 -101.794)" fill="#fff"/>
      <path id="XMLID_432_" d="M247.874,263.668a3.679,3.679,0,0,1-3.668,3.668H161.668a3.669,3.669,0,0,1,0-7.337h82.538a3.679,3.679,0,0,1,3.668,3.669Z" transform="translate(-37.902 -127.784)" fill="#fff"/>
      <path id="XMLID_420_" d="M247.874,311.668a3.679,3.679,0,0,1-3.668,3.668H161.668a3.669,3.669,0,0,1,0-7.337h82.538a3.679,3.679,0,0,1,3.668,3.669Z" transform="translate(-37.902 -153.774)" fill="#fff"/>
      <path id="XMLID_419_" d="M247.874,359.668a3.679,3.679,0,0,1-3.668,3.668H161.668a3.669,3.669,0,0,1,0-7.337h82.538a3.679,3.679,0,0,1,3.668,3.669Z" transform="translate(-37.902 -179.764)" fill="#fff"/>
      <path id="XMLID_410_" d="M247.874,407.668a3.679,3.679,0,0,1-3.668,3.668H161.668a3.669,3.669,0,0,1,0-7.337h82.538a3.679,3.679,0,0,1,3.668,3.669Z" transform="translate(-37.902 -205.754)" fill="#fff"/>
    </g>
    <g id="XMLID_407_2" data-name="XMLID_407_" transform="translate(-4603.789 7861.004)">
      <path id="XMLID_418_2" data-name="XMLID_418_" d="M241.016,80.08,185.991,25.055A3.635,3.635,0,0,0,183.377,24H91.668A3.679,3.679,0,0,0,88,27.668V233.1a3.679,3.679,0,0,0,3.668,3.668H238.4a3.679,3.679,0,0,0,3.668-3.668V82.693a3.713,3.713,0,0,0-1.052-2.613Zm-53.97-43.562,42.507,42.461H187.045Zm47.688,192.909H95.337V31.337h84.372V82.693a3.679,3.679,0,0,0,3.668,3.668h51.357Z" fill="#fff"/>
      <path id="XMLID_441_2" data-name="XMLID_441_" d="M247.874,215.668a3.679,3.679,0,0,1-3.668,3.668H161.668a3.669,3.669,0,0,1,0-7.337h82.538a3.679,3.679,0,0,1,3.668,3.669Z" transform="translate(-37.902 -101.794)" fill="#fff"/>
      <path id="XMLID_432_2" data-name="XMLID_432_" d="M247.874,263.668a3.679,3.679,0,0,1-3.668,3.668H161.668a3.669,3.669,0,0,1,0-7.337h82.538a3.679,3.679,0,0,1,3.668,3.669Z" transform="translate(-37.902 -127.784)" fill="#fff"/>
      <path id="XMLID_420_2" data-name="XMLID_420_" d="M247.874,311.668a3.679,3.679,0,0,1-3.668,3.668H161.668a3.669,3.669,0,0,1,0-7.337h82.538a3.679,3.679,0,0,1,3.668,3.669Z" transform="translate(-37.902 -153.774)" fill="#fff"/>
      <path id="XMLID_419_2" data-name="XMLID_419_" d="M247.874,359.668a3.679,3.679,0,0,1-3.668,3.668H161.668a3.669,3.669,0,0,1,0-7.337h82.538a3.679,3.679,0,0,1,3.668,3.669Z" transform="translate(-37.902 -179.764)" fill="#fff"/>
      <path id="XMLID_410_2" data-name="XMLID_410_" d="M247.874,407.668a3.679,3.679,0,0,1-3.668,3.668H161.668a3.669,3.669,0,0,1,0-7.337h82.538a3.679,3.679,0,0,1,3.668,3.669Z" transform="translate(-37.902 -205.754)" fill="#fff"/>
    </g>
  </g>
</svg>
