<svg xmlns="http://www.w3.org/2000/svg" width="33.508" height="33.6" viewBox="0 0 33.508 33.6">
  <g id="Doc_Pocket_2" data-name="Doc Pocket 2" transform="translate(4538.281 -7885.003)">
    <g id="packet" transform="translate(-4538.281 7888.589)">
      <path id="Path_4968" data-name="Path 4968" d="M252.778,43.669v5.224l-.682-.682-.86.86,2.151,2.152,2.151-2.152-.86-.86-.682.682V43.669a4.264,4.264,0,0,0-4.259-4.259H240v1.217h9.735A3.046,3.046,0,0,1,252.778,43.669Zm0,0" transform="translate(-222.029 -39.41)" fill="#2c2863"/>
      <path id="Path_4969" data-name="Path 4969" d="M6.478,259.648v-5.224l.682.682.86-.86L5.87,252.094l-2.151,2.152.86.86.682-.682v5.224a4.264,4.264,0,0,0,4.259,4.259h9.735V262.69H9.521a3.046,3.046,0,0,1-3.042-3.042Zm0,0" transform="translate(-3.719 -235.918)" fill="#2c2863"/>
      <path id="Path_4970" data-name="Path 4970" d="M210.434,208.627a1.217,1.217,0,1,1-1.217-1.217A1.217,1.217,0,0,1,210.434,208.627Zm0,0" transform="translate(-192.463 -194.632)" fill="#2c2863"/>
    </g>
    <g id="XMLID_407_" transform="translate(-4517.708 7902.42)">
      <path id="XMLID_418_" d="M99.638,28.265,95.453,24.08a.276.276,0,0,0-.2-.08H88.279a.28.28,0,0,0-.279.279V39.9a.28.28,0,0,0,.279.279h11.16a.28.28,0,0,0,.279-.279V28.464A.282.282,0,0,0,99.638,28.265Zm-4.1-3.313,3.233,3.229H95.533ZM99.16,39.624h-10.6V24.558h6.417v3.906a.28.28,0,0,0,.279.279H99.16Z" transform="translate(-88 -24)" fill="#2c2863"/>
      <path id="XMLID_441_" d="M164.835,212.278a.28.28,0,0,1-.279.279h-6.278a.279.279,0,1,1,0-.558h6.278A.28.28,0,0,1,164.835,212.278Z" transform="translate(-155.558 -205.442)" fill="#2c2863"/>
      <path id="XMLID_432_" d="M164.835,260.278a.28.28,0,0,1-.279.279h-6.278a.279.279,0,1,1,0-.558h6.278A.28.28,0,0,1,164.835,260.278Z" transform="translate(-155.558 -251.768)" fill="#2c2863"/>
      <path id="XMLID_420_" d="M164.835,308.278a.28.28,0,0,1-.279.279h-6.278a.279.279,0,1,1,0-.558h6.278A.28.28,0,0,1,164.835,308.278Z" transform="translate(-155.558 -298.094)" fill="#2c2863"/>
      <path id="XMLID_419_" d="M164.835,356.278a.28.28,0,0,1-.279.279h-6.278a.279.279,0,1,1,0-.558h6.278A.28.28,0,0,1,164.835,356.278Z" transform="translate(-155.558 -344.42)" fill="#2c2863"/>
      <path id="XMLID_410_" d="M164.835,404.278a.28.28,0,0,1-.279.279h-6.278a.279.279,0,0,1,0-.558h6.278A.28.28,0,0,1,164.835,404.278Z" transform="translate(-155.558 -390.746)" fill="#2c2863"/>
    </g>
    <g id="XMLID_407_2" data-name="XMLID_407_" transform="translate(-4536.57 7885.003)">
      <path id="XMLID_418_2" data-name="XMLID_418_" d="M99.638,28.265,95.453,24.08a.276.276,0,0,0-.2-.08H88.279a.28.28,0,0,0-.279.279V39.9a.28.28,0,0,0,.279.279h11.16a.28.28,0,0,0,.279-.279V28.464A.282.282,0,0,0,99.638,28.265Zm-4.1-3.313,3.233,3.229H95.533ZM99.16,39.624h-10.6V24.558h6.417v3.906a.28.28,0,0,0,.279.279H99.16Z" transform="translate(-88 -24)" fill="#2c2863"/>
      <path id="XMLID_441_2" data-name="XMLID_441_" d="M164.835,212.278a.28.28,0,0,1-.279.279h-6.278a.279.279,0,1,1,0-.558h6.278A.28.28,0,0,1,164.835,212.278Z" transform="translate(-155.558 -205.442)" fill="#2c2863"/>
      <path id="XMLID_432_2" data-name="XMLID_432_" d="M164.835,260.278a.28.28,0,0,1-.279.279h-6.278a.279.279,0,1,1,0-.558h6.278A.28.28,0,0,1,164.835,260.278Z" transform="translate(-155.558 -251.768)" fill="#2c2863"/>
      <path id="XMLID_420_2" data-name="XMLID_420_" d="M164.835,308.278a.28.28,0,0,1-.279.279h-6.278a.279.279,0,1,1,0-.558h6.278A.28.28,0,0,1,164.835,308.278Z" transform="translate(-155.558 -298.094)" fill="#2c2863"/>
      <path id="XMLID_419_2" data-name="XMLID_419_" d="M164.835,356.278a.28.28,0,0,1-.279.279h-6.278a.279.279,0,1,1,0-.558h6.278A.28.28,0,0,1,164.835,356.278Z" transform="translate(-155.558 -344.42)" fill="#2c2863"/>
      <path id="XMLID_410_2" data-name="XMLID_410_" d="M164.835,404.278a.28.28,0,0,1-.279.279h-6.278a.279.279,0,0,1,0-.558h6.278A.28.28,0,0,1,164.835,404.278Z" transform="translate(-155.558 -390.746)" fill="#2c2863"/>
    </g>
  </g>
</svg>
