<svg id="Group_5383" data-name="Group 5383" xmlns="http://www.w3.org/2000/svg" width="35.38" height="37.595" viewBox="0 0 35.38 37.595">
  <path id="Path_4995" data-name="Path 4995" d="M0,14.106,17.035,25.626a1.054,1.054,0,0,0,1.309,0L35.38,14.106,18.353.242a1.056,1.056,0,0,0-1.327,0Z" transform="translate(0 -0.008)" fill="#64b5f6"/>
  <path id="Path_4996" data-name="Path 4996" d="M87.816,0H66.165A2.262,2.262,0,0,0,64,2.342V28.1a1.13,1.13,0,0,0,1.083,1.171H88.9A1.13,1.13,0,0,0,89.981,28.1V2.342A2.261,2.261,0,0,0,87.816,0Z" transform="translate(-59.3 0.098)" fill="#ececec"/>
  <g id="Group_5382" data-name="Group 5382" transform="translate(8.293 4.699)">
    <path id="Path_4997" data-name="Path 4997" d="M129.175,66.35h16.448a1.175,1.175,0,1,0,0-2.35H129.175a1.175,1.175,0,1,0,0,2.35Z" transform="translate(-128 -64)" fill="#90a4ae"/>
    <path id="Path_4998" data-name="Path 4998" d="M145.623,128H129.175a1.175,1.175,0,0,0,0,2.35h16.448a1.175,1.175,0,1,0,0-2.35Z" transform="translate(-128 -123.301)" fill="#90a4ae"/>
    <path id="Path_4999" data-name="Path 4999" d="M138.574,192h-9.4a1.175,1.175,0,1,0,0,2.35h9.4a1.175,1.175,0,1,0,0-2.35Z" transform="translate(-128 -182.601)" fill="#90a4ae"/>
  </g>
  <path id="Path_5000" data-name="Path 5000" d="M18.344,203.521a1.054,1.054,0,0,1-1.309,0L0,192v21.147a2.284,2.284,0,0,0,2.211,2.35H33.168a2.284,2.284,0,0,0,2.211-2.35V192Z" transform="translate(0 -177.902)" fill="#1e88e5"/>
  <path id="Path_5001" data-name="Path 5001" d="M33.168,319.273H2.211A2.258,2.258,0,0,1,0,316.923a1.2,1.2,0,0,1,.451-.947l16.584-11.749a1.054,1.054,0,0,1,1.309,0l16.584,11.749a1.2,1.2,0,0,1,.451.947A2.258,2.258,0,0,1,33.168,319.273Z" transform="translate(0 -281.678)" fill="#2196f3"/>
</svg>
