<svg xmlns="http://www.w3.org/2000/svg" width="466.374" height="466.374" viewBox="0 0 466.374 466.374">
  <g id="Email_Template" data-name="Email Template" transform="translate(-2 -2)">
    <path id="Path_4949" data-name="Path 4949" d="M445.055,2H25.319A23.319,23.319,0,0,0,2,25.319V445.055a23.319,23.319,0,0,0,23.319,23.319H445.055a23.319,23.319,0,0,0,23.319-23.319V25.319A23.319,23.319,0,0,0,445.055,2ZM17.546,25.319a7.773,7.773,0,0,1,7.773-7.773H445.055a7.773,7.773,0,0,1,7.773,7.773V95.275H17.546ZM452.828,445.055a7.773,7.773,0,0,1-7.773,7.773H25.319a7.773,7.773,0,0,1-7.773-7.773V110.821H452.828Z" fill="#fff"/>
    <path id="Path_4950" data-name="Path 4950" d="M237.868,52.637H51.319A23.319,23.319,0,0,1,51.319,6h186.55a23.319,23.319,0,1,1,0,46.637ZM51.319,21.546a7.773,7.773,0,1,0,0,15.546h186.55a7.773,7.773,0,1,0,0-15.546Z" transform="translate(176.095 27.092)" fill="#fff"/>
    <path id="Path_4951" data-name="Path 4951" d="M29.319,52.637A23.319,23.319,0,1,1,52.637,29.319,23.319,23.319,0,0,1,29.319,52.637Zm0-31.092a7.773,7.773,0,1,0,7.773,7.773A7.773,7.773,0,0,0,29.319,21.546Z" transform="translate(27.092 27.092)" fill="#fff"/>
    <path id="Path_4952" data-name="Path 4952" d="M36.319,52.637A23.319,23.319,0,1,1,59.637,29.319,23.319,23.319,0,0,1,36.319,52.637Zm0-31.092a7.773,7.773,0,1,0,7.773,7.773A7.773,7.773,0,0,0,36.319,21.546Z" transform="translate(74.502 27.092)" fill="#fff"/>
    <path id="Path_4953" data-name="Path 4953" d="M43.319,52.637A23.319,23.319,0,1,1,66.637,29.319,23.319,23.319,0,0,1,43.319,52.637Zm0-31.092a7.773,7.773,0,1,0,7.773,7.773A7.773,7.773,0,0,0,43.319,21.546Z" transform="translate(121.912 27.092)" fill="#fff"/>
    <path id="Path_4954" data-name="Path 4954" d="M142.139,128.821H17.773A7.773,7.773,0,0,1,10,121.048V27.773A7.773,7.773,0,0,1,17.773,20H142.139a7.773,7.773,0,0,1,7.773,7.773v93.275A7.773,7.773,0,0,1,142.139,128.821ZM25.546,113.275H134.366V35.546H25.546Z" transform="translate(54.183 121.912)" fill="#fff"/>
    <path id="Path_4955" data-name="Path 4955" d="M195.231,37.546H39.773a7.773,7.773,0,0,1,0-15.546H195.231a7.773,7.773,0,0,1,0,15.546Z" transform="translate(203.187 135.458)" fill="#fff"/>
    <path id="Path_4956" data-name="Path 4956" d="M195.231,41.546H39.773a7.773,7.773,0,0,1,0-15.546H195.231a7.773,7.773,0,0,1,0,15.546Z" transform="translate(203.187 162.55)" fill="#fff"/>
    <path id="Path_4957" data-name="Path 4957" d="M195.231,45.546H39.773a7.773,7.773,0,0,1,0-15.546H195.231a7.773,7.773,0,0,1,0,15.546Z" transform="translate(203.187 189.641)" fill="#fff"/>
    <path id="Path_4958" data-name="Path 4958" d="M127.5,82.637H49.773A7.773,7.773,0,0,1,42,74.865V43.773A7.773,7.773,0,0,1,49.773,36H127.5a7.773,7.773,0,0,1,7.773,7.773V74.865A7.773,7.773,0,0,1,127.5,82.637ZM57.546,67.092h62.183V51.546H57.546Z" transform="translate(270.916 230.279)" fill="#fff"/>
    <path id="Path_4959" data-name="Path 4959" d="M95.5,82.637H17.773A7.773,7.773,0,0,1,10,74.865V43.773A7.773,7.773,0,0,1,17.773,36H95.5a7.773,7.773,0,0,1,7.773,7.773V74.865A7.773,7.773,0,0,1,95.5,82.637ZM25.546,67.092H87.729V51.546H25.546Z" transform="translate(54.183 230.279)" fill="#fff"/>
    <path id="Path_4960" data-name="Path 4960" d="M111.5,82.637H33.773A7.773,7.773,0,0,1,26,74.865V43.773A7.773,7.773,0,0,1,33.773,36H111.5a7.773,7.773,0,0,1,7.773,7.773V74.865A7.773,7.773,0,0,1,111.5,82.637ZM41.546,67.092h62.183V51.546H41.546Z" transform="translate(162.55 230.279)" fill="#fff"/>
    <path id="Path_4961" data-name="Path 4961" d="M344.235,137.275H17.773A7.773,7.773,0,0,1,10,129.5V51.773A7.773,7.773,0,0,1,17.773,44H344.235a7.773,7.773,0,0,1,7.773,7.773V129.5A7.773,7.773,0,0,1,344.235,137.275ZM25.546,121.729H336.462V59.546H25.546Z" transform="translate(54.183 284.462)" fill="#fff"/>
  </g>
</svg>
