<svg xmlns="http://www.w3.org/2000/svg" width="26.992" height="27.2" viewBox="0 0 26.992 27.2">
  <g id="Layer_x0020_1" transform="translate(-0.001)">
    <path id="Path_5123" data-name="Path 5123" d="M4.223,2.37H6.4v2.9a2.585,2.585,0,0,0,.979,2.013,3.049,3.049,0,0,0,3.835,0,2.586,2.586,0,0,0,.98-2.013V2.37h4.386v2.9a2.586,2.586,0,0,0,.98,2.013,3.049,3.049,0,0,0,3.835,0,2.585,2.585,0,0,0,.979-2.013V2.37h2.268a2.362,2.362,0,0,1,2.355,2.355V24.144A2.362,2.362,0,0,1,24.637,26.5H13.824a4.447,4.447,0,0,0,.314-.779c.022-.075.043-.151.061-.227h9.684a1.86,1.86,0,0,0,1.853-1.852V9.188H3.125V13a5,5,0,0,0-1.257.057V4.725A2.364,2.364,0,0,1,4.223,2.37ZM19.216,18.783H22.3a.4.4,0,0,1,.393.393v2.567a.4.4,0,0,1-.393.393H19.216a.4.4,0,0,1-.393-.393V19.176A.394.394,0,0,1,19.216,18.783ZM6.559,12.11H9.645a.4.4,0,0,1,.393.393V15.07a.4.4,0,0,1-.393.393H6.559a.4.4,0,0,1-.393-.393V12.5A.394.394,0,0,1,6.559,12.11Zm12.656,0H22.3a.4.4,0,0,1,.393.393V15.07a.4.4,0,0,1-.393.393H19.216a.4.4,0,0,1-.393-.393V12.5A.394.394,0,0,1,19.216,12.11Zm-6.161,0H16.14a.4.4,0,0,1,.393.393V15.07a.4.4,0,0,1-.393.393H13.054a.4.4,0,0,1-.393-.393V12.5A.394.394,0,0,1,13.054,12.11Zm0,6.674H16.14a.4.4,0,0,1,.393.393v2.567a.4.4,0,0,1-.393.393H13.054a.4.4,0,0,1-.393-.393V19.176A.394.394,0,0,1,13.054,18.783ZM3.639,20.138A9.995,9.995,0,0,0,5.012,22,8.79,8.79,0,0,0,7.46,23.806a.246.246,0,0,0,.211.011,1.6,1.6,0,0,0,.563-.544c.393-.518.88-1.159,1.568-.838l.041.023,2.293,1.318c.007,0,.015.011.022.015a1.036,1.036,0,0,1,.431.892,2.409,2.409,0,0,1-.336,1.137c-.809,1.422-3.114,1.61-4.54,1.171a12.527,12.527,0,0,1-3.207-1.749A13.315,13.315,0,0,1,.975,21.234a6.5,6.5,0,0,1-.914-4.121,2.96,2.96,0,0,1,1-1.877A2.688,2.688,0,0,1,3.056,14.7a.287.287,0,0,1,.23.147l1.47,2.486a.777.777,0,0,1,.124.83,1.638,1.638,0,0,1-.563.631c-.265.227-.911.567-.869.955a1.221,1.221,0,0,0,.191.385ZM18.335.932a1.16,1.16,0,0,1,2.275,0V5.268a1.16,1.16,0,0,1-2.275,0V.932Zm-10.18,0A1.05,1.05,0,0,1,9.292,0,1.051,1.051,0,0,1,10.43.932V5.268A1.051,1.051,0,0,1,9.292,6.2a1.05,1.05,0,0,1-1.137-.932V.932Z" transform="translate(0)" fill="#2c2863"/>
  </g>
</svg>
