<svg xmlns="http://www.w3.org/2000/svg" width="46.233" height="33.32" viewBox="0 0 46.233 33.32">
  <g id="low-code-configuration" transform="translate(0 -71.5)">
    <g id="Group_3602" data-name="Group 3602" transform="translate(0 71.5)">
      <path id="Path_5110" data-name="Path 5110" d="M42.847,71.5H40.472a.677.677,0,1,0,0,1.354h2.375a2.035,2.035,0,0,1,2.032,2.032V78H1.354V74.886a2.035,2.035,0,0,1,2.032-2.032H37.5a.677.677,0,0,0,0-1.354H3.386A3.387,3.387,0,0,0,0,74.886v7.468a.682.682,0,0,0,.677.677.682.682,0,0,0,.677-.677v-3H44.878V96.82a.677.677,0,1,0,1.354,0V74.886A3.387,3.387,0,0,0,42.847,71.5Z" transform="translate(0 -71.5)" fill="#2c2863"/>
      <path id="Path_5111" data-name="Path 5111" d="M45.555,230.812a.682.682,0,0,0-.677.677v1.761a2.035,2.035,0,0,1-2.032,2.032H3.386a2.035,2.035,0,0,1-2.032-2.032V217.077a.677.677,0,0,0-1.354,0V233.25a3.387,3.387,0,0,0,3.386,3.386h39.46a3.387,3.387,0,0,0,3.386-3.386v-1.761A.682.682,0,0,0,45.555,230.812Z" transform="translate(0 -203.316)" fill="#2c2863"/>
      <path id="Path_5112" data-name="Path 5112" d="M55.828,232.521a.681.681,0,0,0-.957,0L50.8,236.594a.676.676,0,0,0,0,.957l4.018,4.018a.676.676,0,0,0,.957,0,.681.681,0,0,0,0-.957l-3.54-3.54,3.594-3.594a.681.681,0,0,0,0-.957Z" transform="translate(-46.031 -217.803)" fill="#2c2863"/>
      <path id="Path_5113" data-name="Path 5113" d="M206.776,241.469a.676.676,0,0,0,.957,0l4.018-4.018a.676.676,0,0,0,0-.957l-4.072-4.072a.677.677,0,0,0-.957.957l3.594,3.594-3.54,3.54a.681.681,0,0,0,0,.957Z" transform="translate(-187.876 -217.712)" fill="#2c2863"/>
      <path id="Path_5114" data-name="Path 5114" d="M125.177,220.833a.671.671,0,0,0,.632-.433l4.813-12.678a.68.68,0,1,0-1.273-.479l-4.8,12.678a.681.681,0,0,0,.388.876.761.761,0,0,0,.244.036Z" transform="translate(-113.258 -194.583)" fill="#2c2863"/>
      <path id="Path_5115" data-name="Path 5115" d="M33,94.932A2.032,2.032,0,1,0,35.032,92.9,2.035,2.035,0,0,0,33,94.932Zm2.709,0a.677.677,0,1,1-.677-.677A.682.682,0,0,1,35.709,94.932Z" transform="translate(-30.02 -90.968)" fill="#2c2863"/>
      <path id="Path_5116" data-name="Path 5116" d="M91.2,94.932A2.032,2.032,0,1,0,93.232,92.9,2.035,2.035,0,0,0,91.2,94.932Zm2.709,0a.677.677,0,1,1-.677-.677A.682.682,0,0,1,93.909,94.932Z" transform="translate(-82.965 -90.968)" fill="#2c2863"/>
      <path id="Path_5117" data-name="Path 5117" d="M149.3,94.932a2.032,2.032,0,1,0,2.032-2.032A2.035,2.035,0,0,0,149.3,94.932Zm2.709,0a.677.677,0,1,1-.677-.677A.682.682,0,0,1,152.009,94.932Z" transform="translate(-135.818 -90.968)" fill="#2c2863"/>
      <path id="Path_5118" data-name="Path 5118" d="M315.032,201.463h4.244a2.032,2.032,0,0,0,0-4.063h-4.244a2.032,2.032,0,0,0,0,4.063Zm0-2.709h4.244a.677.677,0,1,1,0,1.354h-4.244a.677.677,0,1,1,0-1.354Z" transform="translate(-284.737 -186.031)" fill="#2c2863"/>
      <path id="Path_5119" data-name="Path 5119" d="M315.032,261.463h11.2a2.032,2.032,0,0,0,0-4.063h-11.2a2.032,2.032,0,0,0,0,4.063Zm0-2.709h11.2a.677.677,0,0,1,0,1.354h-11.2a.677.677,0,1,1,0-1.354Z" transform="translate(-284.737 -240.614)" fill="#2c2863"/>
      <path id="Path_5120" data-name="Path 5120" d="M315.032,321.463h7.874a2.032,2.032,0,1,0,0-4.063h-7.874a2.032,2.032,0,1,0,0,4.063Zm0-2.709h7.874a.677.677,0,1,1,0,1.354h-7.874a.677.677,0,1,1,0-1.354Z" transform="translate(-284.737 -295.196)" fill="#2c2863"/>
    </g>
  </g>
</svg>
