<svg xmlns="http://www.w3.org/2000/svg" width="36.54" height="36.541" viewBox="0 0 36.54 36.541">
  <g id="RESIDENTIAL_COMMITMENT" data-name="RESIDENTIAL COMMITMENT" transform="translate(-5.932 -9.771)">
    <path id="Path_4907" data-name="Path 4907" d="M15238.752,8426.444c-.357.042-4.654,0-4.654,0S15239.112,8426.4,15238.752,8426.444Z" transform="translate(-15218.701 -8398.892)" fill="#2c2863"/>
    <g id="download_-_2020-04-28T180120.648" data-name="download - 2020-04-28T180120.648" transform="translate(5.932 9.771)">
      <g id="Group_1353" data-name="Group 1353" transform="translate(0 0)">
        <g id="Group_1352" data-name="Group 1352">
          <path id="Path_1419" data-name="Path 1419" d="M30.729,10.578l-9.8-9.414h0A.6.6,0,0,0,20.543,1H1.555A.523.523,0,0,0,1,1.555V36.985a.523.523,0,0,0,.554.554H30.342a.523.523,0,0,0,.554-.554V11.021A.628.628,0,0,0,30.729,10.578ZM21.1,2.828l7.862,7.585H21.1Zm8.694,33.6H2.108V2.108H19.987v8.913a.523.523,0,0,0,.554.554h9.245V36.431Z" transform="translate(-0.999 -0.999)" fill="#2c2863"/>
        </g>
      </g>
      <g id="Group_1355" data-name="Group 1355" transform="translate(30.948 11.572)">
        <g id="Group_1354" data-name="Group 1354" transform="translate(0)">
          <path id="Path_1420" data-name="Path 1420" d="M62.489,39.172l-.164-14.727A2.474,2.474,0,0,0,59.943,21.9h-.72A2.442,2.442,0,0,0,56.9,24.5l.164,14.727v.112l2.27,7.142a.549.549,0,0,0,.554.387h0a.531.531,0,0,0,.492-.387l2.1-7.142v-.164ZM58,27.215h3.212L61.38,38.62H58.172Zm1.219-4.265h.72a1.383,1.383,0,0,1,1.273,1.494v1.662h-3.21V24.447a1.381,1.381,0,0,1,1.217-1.5Zm.609,21.488-1.494-4.658h2.83Z" transform="translate(-56.897 -21.9)" fill="#2c2863"/>
        </g>
      </g>
      <g id="Group_1357" data-name="Group 1357" transform="translate(3.709 4.429)">
        <g id="Group_1356" data-name="Group 1356" transform="translate(0 0)">
          <path id="Path_1421" data-name="Path 1421" d="M8.255,10.108H19.6A.554.554,0,0,0,19.6,9H8.255a.523.523,0,0,0-.554.554A.6.6,0,0,0,8.255,10.108Z" transform="translate(-7.699 -8.999)" fill="#2c2863"/>
        </g>
      </g>
      <g id="Group_1359" data-name="Group 1359" transform="translate(3.709 8.415)">
        <g id="Group_1358" data-name="Group 1358" transform="translate(0 0)">
          <path id="Path_1422" data-name="Path 1422" d="M8.255,17.308H19.6a.554.554,0,1,0,0-1.107H8.255a.523.523,0,0,0-.554.554.554.554,0,0,0,.554.553Z" transform="translate(-7.699 -16.199)" fill="#2c2863"/>
        </g>
      </g>
      <g id="Group_1361" data-name="Group 1361" transform="translate(3.709 12.456)">
        <g id="Group_1360" data-name="Group 1360" transform="translate(0 0)">
          <path id="Path_1423" data-name="Path 1423" d="M8.255,24.608H19.6a.554.554,0,1,0,0-1.107H8.255a.523.523,0,0,0-.554.554A.554.554,0,0,0,8.255,24.608Z" transform="translate(-7.699 -23.499)" fill="#2c2863"/>
        </g>
      </g>
      <g id="Group_1363" data-name="Group 1363" transform="translate(14.425 30.616)">
        <g id="Group_1362" data-name="Group 1362" transform="translate(0 0)">
          <path id="Path_1424" data-name="Path 1424" d="M38.836,56.3H27.543a.554.554,0,0,0,0,1.107H38.836a.523.523,0,0,0,.554-.554.6.6,0,0,0-.554-.553Z" transform="translate(-27.018 -56.3)" fill="#2c2863"/>
        </g>
      </g>
      <g id="Group_1365" data-name="Group 1365" transform="translate(14.364 21.701)">
        <g id="Group_1364" data-name="Group 1364" transform="translate(0 0)">
          <path id="Path_1425" data-name="Path 1425" d="M38.86,40.2H27.566a.554.554,0,1,0,0,1.107H38.86a.523.523,0,0,0,.554-.554A.6.6,0,0,0,38.86,40.2Z" transform="translate(-26.982 -40.199)" fill="#2c2863"/>
        </g>
      </g>
      <g id="Group_1367" data-name="Group 1367" transform="translate(3.266 15.778)">
        <g id="Group_1366" data-name="Group 1366" transform="translate(0 0)">
          <path id="Path_1426" data-name="Path 1426" d="M15.43,29.5H7.455a.523.523,0,0,0-.554.554v7.308a.523.523,0,0,0,.554.554H15.43a.523.523,0,0,0,.554-.554V30.055a.554.554,0,0,0-.554-.554Zm-.554,7.308H8.008v-6.2h6.865Z" transform="translate(-6.899 -29.499)" fill="#2c2863"/>
        </g>
      </g>
      <g id="Group_1369" data-name="Group 1369" transform="translate(3.266 25.3)">
        <g id="Group_1368" data-name="Group 1368" transform="translate(0 0)">
          <path id="Path_1427" data-name="Path 1427" d="M15.43,46.7H7.455a.523.523,0,0,0-.554.554v7.308a.523.523,0,0,0,.554.554H15.43a.523.523,0,0,0,.554-.554V47.255a.523.523,0,0,0-.554-.554Zm-.554,7.252H8.008V47.808h6.865Z" transform="translate(-6.899 -46.699)" fill="#2c2863"/>
        </g>
      </g>
      <g id="Group_1371" data-name="Group 1371" transform="translate(5.077 17.861)">
        <g id="Group_1370" data-name="Group 1370" transform="translate(0 0)">
          <path id="Path_1428" data-name="Path 1428" d="M11.384,37.174a.561.561,0,0,0,.387.221h.056a.6.6,0,0,0,.387-.164l3.322-2.99a.549.549,0,1,0-.72-.83l-2.823,2.547-.83-1.163a.561.561,0,0,0-.942.609Z" transform="translate(-10.143 -33.277)" fill="#2c2863"/>
        </g>
      </g>
      <g id="Group_1373" data-name="Group 1373" transform="translate(5.077 27.383)">
        <g id="Group_1372" data-name="Group 1372" transform="translate(0 0)">
          <path id="Path_1429" data-name="Path 1429" d="M11.384,54.374a.561.561,0,0,0,.387.221h.056a.6.6,0,0,0,.387-.164l3.322-2.99a.549.549,0,1,0-.72-.83l-2.823,2.547L11.163,52a.561.561,0,0,0-.942.609Z" transform="translate(-10.143 -50.477)" fill="#2c2863"/>
        </g>
      </g>
    </g>
  </g>
</svg>
