<svg xmlns="http://www.w3.org/2000/svg" width="27.867" height="27.867" viewBox="0 0 27.867 27.867">
  <g id="Group_6091" data-name="Group 6091" transform="translate(-771.133 -1592.999)">
    <g id="Group_2043" data-name="Group 2043" transform="translate(771.133 1592.999)">
      <g id="Group_2042" data-name="Group 2042">
        <path id="Path_2459" data-name="Path 2459" d="M13.934,0A13.934,13.934,0,1,0,27.867,13.934,13.926,13.926,0,0,0,13.934,0Zm0,25.69A11.756,11.756,0,1,1,25.69,13.934,11.75,11.75,0,0,1,13.934,25.69Z" fill="#2c2863"/>
      </g>
    </g>
    <g id="Group_2045" data-name="Group 2045" transform="translate(783.978 1604.665)">
      <g id="Group_2044" data-name="Group 2044">
        <path id="Path_2460" data-name="Path 2460" d="M237.089,214.33A1.089,1.089,0,0,0,236,215.419v7.01a1.089,1.089,0,1,0,2.177,0v-7.01A1.089,1.089,0,0,0,237.089,214.33Z" transform="translate(-236 -214.33)" fill="#2c2863"/>
      </g>
    </g>
    <g id="Group_2047" data-name="Group 2047" transform="translate(783.597 1600.393)">
      <g id="Group_2046" data-name="Group 2046">
        <circle id="Ellipse_112" data-name="Ellipse 112" cx="1.47" cy="1.47" r="1.47" fill="#2c2863"/>
      </g>
    </g>
  </g>
</svg>
