<svg xmlns="http://www.w3.org/2000/svg" width="3.5" height="14" viewBox="0 0 3.5 14"><defs><style>.a{fill:#d8d8d8;}</style></defs><g transform="translate(-192)"><g transform="translate(192)"><path class="a" d="M193.75,192a1.75,1.75,0,1,0,1.75,1.75A1.752,1.752,0,0,0,193.75,192Zm0,2.917a1.167,1.167,0,1,1,1.167-1.167A1.168,1.168,0,0,1,193.75,194.917Z" transform="translate(-192 -186.75)"/><path class="a" d="M193.75,384a1.75,1.75,0,1,0,1.75,1.75A1.752,1.752,0,0,0,193.75,384Zm0,2.917a1.167,1.167,0,1,1,1.167-1.167A1.168,1.168,0,0,1,193.75,386.917Z" transform="translate(-192 -373.5)"/><path class="a" d="M193.75,3.5A1.75,1.75,0,1,0,192,1.75,1.752,1.752,0,0,0,193.75,3.5Zm0-2.917a1.167,1.167,0,1,1-1.167,1.167A1.168,1.168,0,0,1,193.75.583Z" transform="translate(-192)"/></g></g></svg>