<svg xmlns="http://www.w3.org/2000/svg" width="33.6" height="33.6" viewBox="0 0 33.6 33.6">
  <g id="dashboard" transform="translate(0)">
    <path id="Path_5106" data-name="Path 5106" d="M31.36,0H2.24A2.24,2.24,0,0,0,0,2.24v22.4a2.24,2.24,0,0,0,2.24,2.24h8.778l-.8,2.8H10.08a2.8,2.8,0,0,0-2.8,2.8A1.12,1.12,0,0,0,8.4,33.6H25.2a1.12,1.12,0,0,0,1.12-1.12,2.8,2.8,0,0,0-2.8-2.8h-.138l-.8-2.8H31.36a2.24,2.24,0,0,0,2.24-2.24V2.24A2.24,2.24,0,0,0,31.36,0ZM25.2,32.48H8.4a1.68,1.68,0,0,1,1.68-1.68H23.52a1.683,1.683,0,0,1,1.68,1.68Zm-2.983-2.8H11.383l.8-2.8h9.236ZM32.48,24.64a1.12,1.12,0,0,1-1.12,1.12H2.24a1.12,1.12,0,0,1-1.12-1.12V2.24A1.12,1.12,0,0,1,2.24,1.12H31.36a1.12,1.12,0,0,1,1.12,1.12Zm0,0" transform="translate(0)" fill="#2c2863"/>
    <path id="Path_5107" data-name="Path 5107" d="M61.573,34.133H35.813a1.68,1.68,0,0,0-1.68,1.68v16.8a1.68,1.68,0,0,0,1.68,1.68h25.76a1.68,1.68,0,0,0,1.68-1.68v-16.8a1.68,1.68,0,0,0-1.68-1.68Zm.56,18.48a.56.56,0,0,1-.56.56H35.813a.56.56,0,0,1-.56-.56v-16.8a.56.56,0,0,1,.56-.56h25.76a.56.56,0,0,1,.56.56Zm0,0" transform="translate(-31.893 -31.893)" fill="#2c2863"/>
    <path id="Path_5108" data-name="Path 5108" d="M210.961,358.4h-5.6a.56.56,0,0,0,0,1.12h5.6a.56.56,0,0,0,0-1.12Zm0,0" transform="translate(-191.361 -334.878)" fill="#2c2863"/>
    <path id="Path_5109" data-name="Path 5109" d="M144.8,93.69a8.439,8.439,0,0,0-.041-.856,8.323,8.323,0,0,0-2.232-4.853.526.526,0,0,0-.328-.336,8.382,8.382,0,0,0-5.426-2.327c-.108,0-.215,0-.321,0-.017,0-.031-.009-.048-.009s-.033.008-.051.01a8.309,8.309,0,0,0-5.758,2.324l-.007.008a.536.536,0,0,0-.307.324,8.369,8.369,0,0,0-.946,10.266,1.116,1.116,0,0,0,.944.51h12.251a1.113,1.113,0,0,0,.942-.508,8.287,8.287,0,0,0,1.327-4.506c0-.009.005-.017.005-.026s0-.013,0-.02Zm-9.608-2.244,1.35,2.838a2.039,2.039,0,0,0-1.271.3Zm.257,4.477a1.113,1.113,0,0,1,.694-.5,1.121,1.121,0,1,1-.7.5Zm7.081,1.707h-4.193a2.227,2.227,0,0,0-.124-2.441l-2.3-4.826a1.038,1.038,0,0,0-1.857.472l.133,5.32a2.185,2.185,0,0,0,.28,1.475h-4.193v.005a7.222,7.222,0,0,1-1.132-3.365H130.8a.56.56,0,0,0,0-1.12h-1.652a7.188,7.188,0,0,1,1.7-4.144l.622.622a.56.56,0,0,0,.792-.792l-.62-.623a7.192,7.192,0,0,1,4.2-1.757V88.11a.56.56,0,1,0,1.12,0V86.458a7.254,7.254,0,0,1,4.2,1.759l-.616.616a.56.56,0,1,0,.792.792l.616-.616a7.2,7.2,0,0,1,1.695,3.936c.007.068.007.135.012.2H142a.56.56,0,0,0,0,1.12h1.657a7.133,7.133,0,0,1-1.131,3.362Zm0,0" transform="translate(-119.599 -79.71)" fill="#2c2863"/>
  </g>
</svg>
