<svg xmlns="http://www.w3.org/2000/svg" width="286.13" height="272.13" viewBox="0 0 286.13 272.13">
  <g id="Group_5100" data-name="Group 5100" transform="translate(15321 5749.565)">
    <path id="Path_4920" data-name="Path 4920" d="M289.72,125.76l-.29-.21-.07.1Z" transform="translate(-15396.26 -5823.455)" fill="#ea7268"/>
    <path id="Path_4921" data-name="Path 4921" d="M289.8,125.79l-.08-.03.13.1Z" transform="translate(-15396.26 -5823.455)" fill="#6ca87d"/>
    <path id="Path_4922" data-name="Path 4922" d="M219.21,345.5l-.88-.29v.81h87.59l-15.71-22.11Z" transform="translate(-15396.26 -5823.455)" fill="#f3a06d"/>
    <path id="Path_4923" data-name="Path 4923" d="M218.33,222.72l71.88,101.19h0l44.95-65.33Z" transform="translate(-15396.26 -5823.455)" fill="#f3a06d"/>
    <path id="Path_4924" data-name="Path 4924" d="M290.21,323.91l15.71,22.11h.83l28.41-87.44Z" transform="translate(-15396.26 -5823.455)" fill="#f37123"/>
    <path id="Path_4925" data-name="Path 4925" d="M219.21,345.5l71-21.59L218.33,222.72V345.21Z" transform="translate(-15396.26 -5823.455)" fill="#f37123"/>
    <path id="Path_4926" data-name="Path 4926" d="M101.74,259.35l27.61,84.95,17.09-23.36Z" transform="translate(-15396.26 -5823.455)" fill="#fbd871"/>
    <path id="Path_4927" data-name="Path 4927" d="M146.69,321.29l71.64,23.92V222.72h0l-71.89,98.22Z" transform="translate(-15396.26 -5823.455)" fill="#fbd871"/>
    <path id="Path_4928" data-name="Path 4928" d="M146.69,321.29l-.25-.35L129.35,344.3l.55,1.72h88.43v-.81Z" transform="translate(-15396.26 -5823.455)" fill="#f9bc15"/>
    <path id="Path_4929" data-name="Path 4929" d="M218.33,222.72,101.74,259.35l44.7,61.59Z" transform="translate(-15396.26 -5823.455)" fill="#f9bc15"/>
    <path id="Path_4930" data-name="Path 4930" d="M334.86,186.09l26.46-8.31-71.47-51.92,45.01,60.16Z" transform="translate(-15396.26 -5823.455)" fill="#ea4435"/>
    <path id="Path_4931" data-name="Path 4931" d="M218.33,222.72l116.83,35.86-.3-72.49Z" transform="translate(-15396.26 -5823.455)" fill="#ea4435"/>
    <path id="Path_4932" data-name="Path 4932" d="M361.32,177.78l-26.46,8.31.3,72.49,26.23-80.75Z" transform="translate(-15396.26 -5823.455)" fill="#ea7268"/>
    <path id="Path_4933" data-name="Path 4933" d="M218.33,222.72l116.53-36.63v-.07l-45.01-60.16-.13-.1-.36-.11Z" transform="translate(-15396.26 -5823.455)" fill="#ea7268"/>
    <path id="Path_4934" data-name="Path 4934" d="M75.61,178.91l26.13,80.44.88-72.15Z" transform="translate(-15396.26 -5823.455)" fill="#34a851"/>
    <path id="Path_4935" data-name="Path 4935" d="M102.62,187.2l115.71,35.52-69.74-98.17L102.2,187.07Z" transform="translate(-15396.26 -5823.455)" fill="#34a851"/>
    <path id="Path_4936" data-name="Path 4936" d="M102.62,186.97l45.97-62.42L75.26,177.83l.35,1.08,27.01,8.29Z" transform="translate(-15396.26 -5823.455)" fill="#6ca87d"/>
    <path id="Path_4937" data-name="Path 4937" d="M102.2,187.07l-.46,72.28,116.59-36.63Z" transform="translate(-15396.26 -5823.455)" fill="#6ca87d"/>
    <path id="Path_4938" data-name="Path 4938" d="M218.33,73.89l-69.74,50.66,69.74-21.81Z" transform="translate(-15396.26 -5823.455)" fill="#547dbf"/>
    <path id="Path_4939" data-name="Path 4939" d="M218.33,102.74V222.72l71.03-97.07Z" transform="translate(-15396.26 -5823.455)" fill="#547dbf"/>
    <path id="Path_4940" data-name="Path 4940" d="M289.36,125.65l.07-.1-71.1-51.66v28.85Z" transform="translate(-15396.26 -5823.455)" fill="#8dafdc"/>
    <path id="Path_4941" data-name="Path 4941" d="M218.33,102.74l-69.74,21.81,69.74,98.17Z" transform="translate(-15396.26 -5823.455)" fill="#8dafdc"/>
  </g>
</svg>
