<?xml version="1.0" encoding="utf-8"?>
<!-- Generator: Adobe Illustrator 22.1.0, SVG Export Plug-In . SVG Version: 6.00 Build 0)  -->
<svg version="1.1" id="Layer_1" xmlns="http://www.w3.org/2000/svg" xmlns:xlink="http://www.w3.org/1999/xlink" x="0px" y="0px"
	 viewBox="0 0 512 512" style="enable-background:new 0 0 512 512;" xml:space="preserve">
<style type="text/css">
	.st0{fill:#FFFFFF;}
</style>
<g>
	<g>
		<path class="st0" d="M474.5,71.5h-26.3c-4.1,0-7.5,3.4-7.5,7.5s3.4,7.5,7.5,7.5h26.3c12.4,0,22.5,10.1,22.5,22.5v34.5H15V109
			c0-12.4,10.1-22.5,22.5-22.5h377.8c4.1,0,7.5-3.4,7.5-7.5s-3.4-7.5-7.5-7.5H37.5C16.8,71.5,0,88.3,0,109v82.7
			c0,4.1,3.4,7.5,7.5,7.5s7.5-3.4,7.5-7.5v-33.2h482v193.4c0,4.1,3.4,7.5,7.5,7.5s7.5-3.4,7.5-7.5V109
			C512,88.3,495.2,71.5,474.5,71.5z"/>
		<path class="st0" d="M504.5,376c-4.1,0-7.5,3.4-7.5,7.5V403c0,12.4-10.1,22.5-22.5,22.5h-437C25.1,425.5,15,415.4,15,403V223.9
			c0-4.1-3.4-7.5-7.5-7.5S0,219.7,0,223.9V403c0,20.7,16.8,37.5,37.5,37.5h437c20.7,0,37.5-16.8,37.5-37.5v-19.5
			C512,379.4,508.6,376,504.5,376z"/>
		<path class="st0" d="M108.5,234.5c-2.9-2.9-7.7-2.9-10.6,0l-45.1,45.1c-1.4,1.4-2.2,3.3-2.2,5.3s0.8,3.9,2.2,5.3l44.5,44.5
			c1.5,1.5,3.4,2.2,5.3,2.2s3.8-0.7,5.3-2.2c2.9-2.9,2.9-7.7,0-10.6l-39.2-39.2l39.8-39.8C111.4,242.1,111.4,237.4,108.5,234.5
			L108.5,234.5z"/>
		<path class="st0" d="M209.3,334.6c1.5,1.5,3.4,2.2,5.3,2.2s3.8-0.7,5.3-2.2l44.5-44.5c1.4-1.4,2.2-3.3,2.2-5.3s-0.8-3.9-2.2-5.3
			l-45.1-45.1c-2.9-2.9-7.7-2.9-10.6,0c-2.9,2.9-2.9,7.7,0,10.6l39.8,39.8L209.3,324C206.4,326.9,206.4,331.7,209.3,334.6
			L209.3,334.6z"/>
		<path class="st0" d="M132,362.2c3,0,5.9-1.8,7-4.8L192.3,217c1.5-3.9-0.5-8.2-4.4-9.7c-3.9-1.5-8.2,0.5-9.7,4.4L125,352.1
			c-1.5,3.9,0.5,8.2,4.3,9.7C130.2,362.1,131.1,362.2,132,362.2L132,362.2z"/>
		<path class="st0" d="M33,115.4c0,12.4,10.1,22.5,22.5,22.5S78,127.8,78,115.4S67.9,92.9,55.5,92.9S33,103,33,115.4z M63,115.4
			c0,4.1-3.4,7.5-7.5,7.5s-7.5-3.4-7.5-7.5s3.4-7.5,7.5-7.5S63,111.2,63,115.4z"/>
		<path class="st0" d="M91.2,115.4c0,12.4,10.1,22.5,22.5,22.5s22.5-10.1,22.5-22.5s-10.1-22.5-22.5-22.5S91.2,103,91.2,115.4z
			 M121.2,115.4c0,4.1-3.4,7.5-7.5,7.5s-7.5-3.4-7.5-7.5s3.4-7.5,7.5-7.5S121.2,111.2,121.2,115.4z"/>
		<path class="st0" d="M149.3,115.4c0,12.4,10.1,22.5,22.5,22.5s22.5-10.1,22.5-22.5s-10.1-22.5-22.5-22.5S149.3,103,149.3,115.4z
			 M179.3,115.4c0,4.1-3.4,7.5-7.5,7.5s-7.5-3.4-7.5-7.5s3.4-7.5,7.5-7.5S179.3,111.2,179.3,115.4z"/>
		<path class="st0" d="M335.5,242.4h47c12.4,0,22.5-10.1,22.5-22.5s-10.1-22.5-22.5-22.5h-47c-12.4,0-22.5,10.1-22.5,22.5
			S323.1,242.4,335.5,242.4z M335.5,212.4h47c4.1,0,7.5,3.4,7.5,7.5s-3.4,7.5-7.5,7.5h-47c-4.1,0-7.5-3.4-7.5-7.5
			S331.4,212.4,335.5,212.4z"/>
		<path class="st0" d="M335.5,302.4h124c12.4,0,22.5-10.1,22.5-22.5s-10.1-22.5-22.5-22.5h-124c-12.4,0-22.5,10.1-22.5,22.5
			S323.1,302.4,335.5,302.4z M335.5,272.4h124c4.1,0,7.5,3.4,7.5,7.5s-3.4,7.5-7.5,7.5h-124c-4.1,0-7.5-3.4-7.5-7.5
			S331.4,272.4,335.5,272.4z"/>
		<path class="st0" d="M335.5,362.4h87.2c12.4,0,22.5-10.1,22.5-22.5s-10.1-22.5-22.5-22.5h-87.2c-12.4,0-22.5,10.1-22.5,22.5
			S323.1,362.4,335.5,362.4z M335.5,332.4h87.2c4.1,0,7.5,3.4,7.5,7.5s-3.4,7.5-7.5,7.5h-87.2c-4.1,0-7.5-3.4-7.5-7.5
			S331.4,332.4,335.5,332.4z"/>
	</g>
</g>
</svg>
