<svg xmlns="http://www.w3.org/2000/svg" width="40.882" height="51.667" viewBox="0 0 40.882 51.667">
  <path id="bell_1_" data-name="bell (1)" d="M93.473,41.117A8.027,8.027,0,0,1,91.033,37.8c-2.1-4.448-2.543-10.715-2.543-15.188,0-.019,0-.039,0-.058a14.66,14.66,0,0,0-8.629-13.3v-3.5A5.757,5.757,0,0,0,74.113,0h-.476a5.757,5.757,0,0,0-5.746,5.756v3.5a14.66,14.66,0,0,0-8.63,13.354c0,4.474-.441,10.74-2.543,15.188a8.027,8.027,0,0,1-2.439,3.322,1.471,1.471,0,0,0-.808,1.674,1.54,1.54,0,0,0,1.518,1.183H66.083a7.793,7.793,0,0,0,15.585,0H92.763a1.54,1.54,0,0,0,1.518-1.183A1.472,1.472,0,0,0,93.473,41.117ZM70.919,5.756a2.724,2.724,0,0,1,2.719-2.723h.476a2.724,2.724,0,0,1,2.719,2.723V8.27a14.66,14.66,0,0,0-5.914,0V5.756Zm2.957,42.879a4.777,4.777,0,0,1-4.765-4.661h9.531A4.776,4.776,0,0,1,73.875,48.634Zm6.1-7.693H58.437a15.866,15.866,0,0,0,.793-1.392c2.029-4,3.057-9.7,3.057-16.942a11.587,11.587,0,1,1,23.174.005c0,.019,0,.037,0,.056C85.468,29.88,86.5,35.56,88.52,39.549a15.878,15.878,0,0,0,.793,1.392Z" transform="translate(-53.435)" fill="#2c2863"/>
</svg>
