<svg xmlns="http://www.w3.org/2000/svg" width="35.007" height="30.912" viewBox="0 0 35.007 30.912">
  <g id="Layer_2" data-name="Layer 2" transform="translate(-0.62 -4.98)">
    <g id="Layer_1" data-name="Layer 1" transform="translate(0.62 4.98)">
      <path id="Subtraction_2" data-name="Subtraction 2" d="M14.789,26.355c-4.395,0-7.978-.033-11.277-.1-1.646-.035-2.49-1.243-3.306-2.411L0,23.548V3.239A4.221,4.221,0,0,1,1.757.832,5.374,5.374,0,0,1,4.59.091C8.912.031,13.3,0,17.619,0s8.707.031,13.029.091a4.426,4.426,0,0,1,2.882.888,4.93,4.93,0,0,1,1.476,2.643V14.911a5.851,5.851,0,0,1-2.232-2.246,5.124,5.124,0,0,1-.457-3.171,13.7,13.7,0,0,0,.06-2.458c-.015-.45-.03-.915-.03-1.426-1.294.96-2.5,1.843-3.658,2.7-.841.618-1.712,1.257-2.567,1.889-.587.434-1.187.87-1.766,1.292l-.013.009c-1.659,1.207-3.374,2.455-4.988,3.774a2.971,2.971,0,0,1-1.852.865,2.938,2.938,0,0,1-1.782-.792C12.8,13.017,9.737,10.77,6.773,8.6L6.765,8.59C5.759,7.853,4.719,7.09,3.7,6.335a.994.994,0,0,0-1.005-.323c0,1.435,0,2.943,0,4.154-.006,3.946-.012,8.027.031,12.05,0,.973.636,1.445,1.945,1.445h.061c1.775-.014,3.507-.021,5.148-.021s3.265.007,4.821.021a2.451,2.451,0,0,0,.385-.049,2.939,2.939,0,0,1,.492-.06.486.486,0,0,1,.393.138.64.64,0,0,1,.077.528,4.13,4.13,0,0,0-.044.553C15.971,25.514,15.94,26.355,14.789,26.355ZM4.977,3.5h0c.016.074.025.141.032.2.013.107.023.183.066.217,2.017,1.51,4.046,3.025,6.008,4.491,1.762,1.315,3.758,2.807,5.69,4.253a1.073,1.073,0,0,0,1.5,0C21,10.6,23.738,8.565,26.639,6.406h0l.062-.046c1.241-.923,2.523-1.878,3.835-2.857Z" fill="#2c2863"/>
      <path id="Subtraction_1" data-name="Subtraction 1" d="M.281,17.406a.264.264,0,0,1-.22-.088c-.115-.145-.045-.444.012-.683l0-.008c.012-.053.024-.1.033-.148q.057-.289.113-.577a26.9,26.9,0,0,1,1.213-4.7A10.65,10.65,0,0,1,2.558,9.059,9.339,9.339,0,0,1,4.3,7.145,53.908,53.908,0,0,0,9.561,1.877c.389-.428.792-.87,1.191-1.3.382-.4.66-.575.929-.575a1.574,1.574,0,0,1,.967.575c.477.464.942.954,1.393,1.427a22.144,22.144,0,0,0,3.474,3.167v.376c-.971.995-1.949,1.987-2.895,2.947-1.9,1.928-3.866,3.921-5.757,5.921a6.635,6.635,0,0,1-2.715,1.724,18.564,18.564,0,0,1-3.074.7,22.647,22.647,0,0,0-2.556.532A.892.892,0,0,1,.281,17.406ZM11.646,3.683c-.228,0-.362.209-.492.41a1.514,1.514,0,0,1-.174.237c-.738.745-1.476,1.513-2.191,2.255l-.006.007C7.576,7.846,6.329,9.142,5.047,10.369a1.214,1.214,0,0,0-.477.795c-.006.309.238.554.5.814.091.092.185.187.272.288.353.407.619.581.89.581a1.273,1.273,0,0,0,.87-.532c1.152-1.258,2.369-2.5,3.546-3.7l.007-.007c.717-.731,1.458-1.487,2.179-2.241a7.914,7.914,0,0,0,.515-.625c.123-.158.262-.338.445-.567-.225-.169-.448-.344-.664-.513l0,0c-.4-.313-.777-.608-1.15-.858A.6.6,0,0,0,11.646,3.683Z" transform="translate(17.492 13.505)" fill="#2c2863"/>
    </g>
  </g>
</svg>
