<svg id="analytics" xmlns="http://www.w3.org/2000/svg" width="41.456" height="41.456" viewBox="0 0 41.456 41.456">
  <g id="Group_2416" data-name="Group 2416" transform="translate(0 15.546)">
    <g id="Group_2415" data-name="Group 2415">
      <path id="Path_4309" data-name="Path 4309" d="M0,177.231v25.91H8.723v-25.91Zm7,24.183H1.727V178.958H7Z" transform="translate(0 -177.231)" fill="#2c2863"/>
    </g>
  </g>
  <g id="Group_2418" data-name="Group 2418" transform="translate(10.882 25.911)">
    <g id="Group_2417" data-name="Group 2417">
      <path id="Path_4310" data-name="Path 4310" d="M124.062,295.385v15.546h8.723V295.385Zm7,13.819h-5.27V297.112h5.268Z" transform="translate(-124.062 -295.385)" fill="#2c2863"/>
    </g>
  </g>
  <g id="Group_2420" data-name="Group 2420" transform="translate(32.732 31.956)">
    <g id="Group_2419" data-name="Group 2419">
      <path id="Path_4311" data-name="Path 4311" d="M373.169,364.308v9.5h8.723v-9.5Zm7,7.773H374.9v-6.045h5.268Z" transform="translate(-373.169 -364.308)" fill="#2c2863"/>
    </g>
  </g>
  <g id="Group_2422" data-name="Group 2422" transform="translate(21.85 12.955)">
    <g id="Group_2421" data-name="Group 2421">
      <path id="Path_4312" data-name="Path 4312" d="M249.108,147.692v28.5h8.723v-28.5Zm7,26.773h-5.268V149.419H256.1Z" transform="translate(-249.108 -147.692)" fill="#2c2863"/>
    </g>
  </g>
  <g id="Group_2424" data-name="Group 2424" transform="translate(14.891 2.362)">
    <g id="Group_2423" data-name="Group 2423" transform="translate(0 0)">
      <rect id="Rectangle_1573" data-name="Rectangle 1573" width="10.364" height="1.727" transform="matrix(0.864, -0.503, 0.503, 0.864, 0, 5.213)" fill="#2c2863"/>
    </g>
  </g>
  <g id="Group_2426" data-name="Group 2426" transform="translate(3.711 4.703)">
    <g id="Group_2425" data-name="Group 2425" transform="translate(0 0)">
      <rect id="Rectangle_1574" data-name="Rectangle 1574" width="1.727" height="8.809" transform="translate(0 1.614) rotate(-69.138)" fill="#2c2863"/>
    </g>
  </g>
  <g id="Group_2428" data-name="Group 2428" transform="translate(27.033 2.592)">
    <g id="Group_2427" data-name="Group 2427">
      <path id="Path_4313" data-name="Path 4313" d="M309.135,29.539l-.95,1.382,10.1,7,.259.173h.259v-.864l.432-.692Z" transform="translate(-308.185 -29.539)" fill="#2c2863"/>
    </g>
  </g>
  <g id="Group_2430" data-name="Group 2430" transform="translate(0 1.814)">
    <g id="Group_2429" data-name="Group 2429" transform="translate(0 0)">
      <path id="Path_4314" data-name="Path 4314" d="M2.591,20.677a2.591,2.591,0,1,0,2.591,2.591,2.591,2.591,0,0,0-2.591-2.591Zm0,3.455a.864.864,0,1,1,.864-.864A.864.864,0,0,1,2.591,24.132Z" transform="translate(0 -20.677)" fill="#2c2863"/>
    </g>
  </g>
  <g id="Group_2432" data-name="Group 2432" transform="translate(11.227 6.652)">
    <g id="Group_2431" data-name="Group 2431" transform="translate(0 0)">
      <path id="Path_4315" data-name="Path 4315" d="M132.836,77.113a2.687,2.687,0,0,0-2.246-1.3,2.6,2.6,0,0,0-2.418,1.641,4.456,4.456,0,0,0-.173.949A2.545,2.545,0,0,0,130.59,81a2.6,2.6,0,0,0,2.591-2.591A2.437,2.437,0,0,0,132.836,77.113Zm-2.246,2.158a.814.814,0,0,1-.864-.864c0-.086.086-.173.086-.259a.829.829,0,0,1,.777-.6.907.907,0,0,1,.777.432.778.778,0,0,1,.086.432.814.814,0,0,1-.863.863Z" transform="translate(-127.999 -75.818)" fill="#2c2863"/>
    </g>
  </g>
  <g id="Group_2434" data-name="Group 2434" transform="translate(23.318 0)">
    <g id="Group_2433" data-name="Group 2433" transform="translate(0)">
      <path id="Path_4316" data-name="Path 4316" d="M268.436,0a2.534,2.534,0,0,0-2.418,3.454,2.57,2.57,0,0,0,4.75.259,2.659,2.659,0,0,0,.259-1.123A2.545,2.545,0,0,0,268.436,0Zm.777,2.937a.821.821,0,0,1-1.555-.087.317.317,0,0,1-.086-.259.864.864,0,0,1,1.727,0,.519.519,0,0,1-.086.346Z" transform="translate(-265.844 0.002)" fill="#2c2863"/>
    </g>
  </g>
  <g id="Group_2436" data-name="Group 2436" transform="translate(36.272 8.896)">
    <g id="Group_2435" data-name="Group 2435" transform="translate(0 0)">
      <path id="Path_4317" data-name="Path 4317" d="M416.127,101.414a2.591,2.591,0,1,0,2.591,2.591,2.545,2.545,0,0,0-2.591-2.591Zm0,3.455a.864.864,0,1,1,.864-.864.814.814,0,0,1-.864.863Z" transform="translate(-413.536 -101.414)" fill="#2c2863"/>
    </g>
  </g>
</svg>
