<svg xmlns="http://www.w3.org/2000/svg" width="16.055" height="17.532" viewBox="0 0 16.055 17.532"><defs><style>.a{fill:#ffffff;}</style></defs><g transform="translate(-21 -95)"><g transform="translate(529.401 -1220.908)"><g transform="translate(-508.401 1319.068)"><path class="a" d="M34.62,86.7H31.149a.215.215,0,0,0,0,.429H34.62a.855.855,0,0,1,.855.855v8.922a.855.855,0,0,1-.855.855H21.135a.855.855,0,0,1-.855-.855V87.988a.855.855,0,0,1,.855-.855H24.66a.215.215,0,1,0,0-.429H21.135a1.286,1.286,0,0,0-1.285,1.285v8.922A1.286,1.286,0,0,0,21.135,98.2h6.528v2.448H24.535a.215.215,0,0,0,0,.429H31.22a.215.215,0,1,0,0-.429H28.092V98.2H34.62A1.286,1.286,0,0,0,35.9,96.911V87.988A1.287,1.287,0,0,0,34.62,86.7Z" transform="translate(-19.85 -86.7)"/></g><path class="a" d="M195.322.633A.632.632,0,0,0,194.689,0h-2.5a.632.632,0,0,0-.633.633V2.115a.2.2,0,0,0,.011.064.2.2,0,0,0-.011.064V9.255h-.007v.021c0,.011,0,.018,0,.025v.007c0,.007,0,.014.007.021a0,0,0,0,0,0,0c0,.007.007.018.011.025a0,0,0,0,0,0,0,.074.074,0,0,0,.014.021,0,0,0,0,0,0,0l1.668,2.187a.214.214,0,0,0,.172.086.219.219,0,0,0,.172-.086l1.668-2.187a0,0,0,0,1,0,0c0-.007.011-.014.014-.021a0,0,0,0,1,0,0,.171.171,0,0,0,.011-.025,0,0,0,0,1,0,0c0-.007,0-.014.007-.021V9.3a.061.061,0,0,0,0-.025V2.23a.279.279,0,0,0-.007-.057.279.279,0,0,0,.007-.057Zm-1.89,10.454L192.2,9.47h2.469Zm1.453-8.858V9.04h-2.906V2.24a.2.2,0,0,0-.011-.064.2.2,0,0,0,.011-.064V.633a.206.206,0,0,1,.2-.2h2.5a.206.206,0,0,1,.2.2V2.115a.277.277,0,0,0,.007.057A.277.277,0,0,0,194.886,2.23Z" transform="translate(-693.806 1315.908)"/><g transform="translate(-500.589 1316.983)"><path class="a" d="M238.365,33.2a.215.215,0,0,0-.215.215v6.7a.213.213,0,0,0,.215.215.215.215,0,0,0,.215-.215v-6.7A.215.215,0,0,0,238.365,33.2Z" transform="translate(-238.15 -33.2)"/></g></g></g></svg>