<svg id="landing-page" xmlns="http://www.w3.org/2000/svg" width="36.073" height="36.073" viewBox="0 0 36.073 36.073">
  <g id="Group_6290" data-name="Group 6290">
    <g id="Group_6289" data-name="Group 6289">
      <path id="Path_5735" data-name="Path 5735" d="M33.067,3.006H13.527V.752A.751.751,0,0,0,12.776,0H8.267a.751.751,0,0,0-.752.752V3.006H3.006A3.009,3.009,0,0,0,0,6.012V27.055a3.009,3.009,0,0,0,3.006,3.006H13.53c-.032,1.2-.263,3.122-1.12,4.023a1.475,1.475,0,0,1-1.137.486.752.752,0,1,0,0,1.5H24.8a.752.752,0,1,0,0-1.5,1.475,1.475,0,0,1-1.137-.486c-.857-.9-1.087-2.822-1.12-4.023H33.067a3.009,3.009,0,0,0,3.006-3.006V6.012A3.009,3.009,0,0,0,33.067,3.006ZM8.267,9.018a.751.751,0,0,0,.752-.752V1.5h3.006V8.267a.751.751,0,0,0,.752.752h.751l-3.006,4.008L7.515,9.018ZM13.931,34.57a9.152,9.152,0,0,0,1.106-4.509h6a9.153,9.153,0,0,0,1.106,4.509ZM34.57,27.055a1.505,1.505,0,0,1-1.5,1.5H3.006a1.505,1.505,0,0,1-1.5-1.5V24.049H34.57Zm0-4.509H1.5V6.012a1.505,1.505,0,0,1,1.5-1.5H7.515V7.515h-1.5a.751.751,0,0,0-.6,1.2L9.92,14.73a.751.751,0,0,0,1.2,0l4.509-6.012a.751.751,0,0,0-.6-1.2h-1.5V4.509h19.54a1.505,1.505,0,0,1,1.5,1.5V22.546Z" fill="#fff"/>
      <circle id="Ellipse_177" data-name="Ellipse 177" cx="1.503" cy="1.503" r="1.503" transform="translate(16.534 24.8)" fill="#fff"/>
      <path id="Path_5736" data-name="Path 5736" d="M288.788,110.9l-.712-.178.377-.63a.751.751,0,0,0-.113-.917l-1.488-1.488a.751.751,0,0,0-.917-.113l-.63.377-.178-.712a.751.751,0,0,0-.729-.57h-2.1a.751.751,0,0,0-.729.57l-.178.712-.63-.377a.753.753,0,0,0-.917.113l-1.488,1.488a.751.751,0,0,0-.113.917l.377.63-.712.178a.751.751,0,0,0-.569.729v2.1a.751.751,0,0,0,.569.729l.712.178-.377.63a.751.751,0,0,0,.113.917l1.488,1.488a.752.752,0,0,0,.917.113l.63-.377.178.712a.751.751,0,0,0,.729.57h2.1a.751.751,0,0,0,.729-.57l.178-.712.63.377a.753.753,0,0,0,.917-.113l1.488-1.488a.751.751,0,0,0,.113-.917l-.377-.63.712-.178a.751.751,0,0,0,.57-.729v-2.1A.751.751,0,0,0,288.788,110.9Zm-.934,2.246-.732.183a.75.75,0,0,0-.528.483,3.294,3.294,0,0,1-.149.368.75.75,0,0,0,.032.714l.387.646-.658.658-.646-.387a.744.744,0,0,0-.714-.032,3.293,3.293,0,0,1-.368.149.749.749,0,0,0-.483.528l-.183.732h-.931l-.183-.732a.75.75,0,0,0-.483-.528,3.3,3.3,0,0,1-.368-.149.75.75,0,0,0-.714.032l-.646.387-.658-.658.387-.646a.75.75,0,0,0,.032-.714,3.3,3.3,0,0,1-.149-.368.75.75,0,0,0-.528-.483l-.732-.183v-.931l.732-.183a.75.75,0,0,0,.528-.483,3.294,3.294,0,0,1,.149-.368.75.75,0,0,0-.032-.714l-.387-.646.658-.658.646.387a.75.75,0,0,0,.714.032,3.3,3.3,0,0,1,.368-.149.75.75,0,0,0,.483-.528l.183-.732h.931l.183.732a.75.75,0,0,0,.483.528,3.293,3.293,0,0,1,.368.149.748.748,0,0,0,.714-.032l.646-.387.658.658-.387.646a.75.75,0,0,0-.032.714,3.3,3.3,0,0,1,.149.368.749.749,0,0,0,.528.483l.732.183Z" transform="translate(-257.793 -99.152)" fill="#fff"/>
      <path id="Path_5737" data-name="Path 5737" d="M332.922,160a2.255,2.255,0,1,0,2.255,2.255A2.257,2.257,0,0,0,332.922,160Zm0,3.006a.752.752,0,1,1,.752-.752A.752.752,0,0,1,332.922,163.006Z" transform="translate(-307.37 -148.727)" fill="#fff"/>
      <path id="Path_5738" data-name="Path 5738" d="M75.273,234.667H64.752a.752.752,0,1,0,0,1.5H75.273a.752.752,0,1,0,0-1.5Z" transform="translate(-59.491 -218.133)" fill="#fff"/>
      <path id="Path_5739" data-name="Path 5739" d="M70.764,277.333H64.752a.752.752,0,1,0,0,1.5h6.012a.752.752,0,1,0,0-1.5Z" transform="translate(-59.491 -257.793)" fill="#fff"/>
    </g>
  </g>
</svg>
