<svg id="landing-page" xmlns="http://www.w3.org/2000/svg" width="41.592" height="41.592" viewBox="0 0 41.592 41.592">
  <g id="Group_6290" data-name="Group 6290">
    <g id="Group_6289" data-name="Group 6289">
      <path id="Path_5735" data-name="Path 5735" d="M38.126,3.466H15.6V.867A.866.866,0,0,0,14.73,0h-5.2a.866.866,0,0,0-.867.867v2.6h-5.2A3.469,3.469,0,0,0,0,6.932V31.194A3.469,3.469,0,0,0,3.466,34.66H15.6c-.037,1.385-.3,3.6-1.291,4.639a1.7,1.7,0,0,1-1.311.56.867.867,0,1,0,0,1.733h15.6a.867.867,0,1,0,0-1.733,1.7,1.7,0,0,1-1.311-.56c-.988-1.04-1.254-3.254-1.291-4.639H38.126a3.469,3.469,0,0,0,3.466-3.466V6.932A3.469,3.469,0,0,0,38.126,3.466ZM9.531,10.4a.866.866,0,0,0,.867-.867v-7.8h3.466v7.8a.866.866,0,0,0,.867.867H15.6l-3.466,4.621L8.665,10.4Zm6.531,29.461a10.552,10.552,0,0,0,1.275-5.2h6.917a10.553,10.553,0,0,0,1.275,5.2Zm23.8-8.665a1.735,1.735,0,0,1-1.733,1.733H3.466a1.735,1.735,0,0,1-1.733-1.733V27.728H39.859Zm0-5.2H1.733V6.932A1.735,1.735,0,0,1,3.466,5.2h5.2V8.665H6.932a.866.866,0,0,0-.693,1.386l5.2,6.932a.866.866,0,0,0,1.386,0l5.2-6.932a.866.866,0,0,0-.693-1.386H15.6V5.2H38.126a1.735,1.735,0,0,1,1.733,1.733V25.995Z" fill="#2c2863"/>
      <circle id="Ellipse_177" data-name="Ellipse 177" cx="1.733" cy="1.733" r="1.733" transform="translate(19.063 28.594)" fill="#2c2863"/>
      <path id="Path_5736" data-name="Path 5736" d="M290.54,111.545l-.821-.206.435-.727a.865.865,0,0,0-.13-1.058l-1.715-1.715a.865.865,0,0,0-1.058-.13l-.727.435-.206-.821a.865.865,0,0,0-.84-.657h-2.427a.865.865,0,0,0-.84.657l-.206.821-.727-.435a.868.868,0,0,0-1.058.13l-1.715,1.715a.866.866,0,0,0-.13,1.058l.435.727-.821.206a.865.865,0,0,0-.657.84v2.427a.865.865,0,0,0,.657.84l.821.206-.435.727a.866.866,0,0,0,.13,1.058l1.715,1.715a.868.868,0,0,0,1.058.13l.727-.435.206.821a.865.865,0,0,0,.84.657h2.427a.865.865,0,0,0,.84-.657l.206-.821.727.435a.868.868,0,0,0,1.058-.13l1.715-1.715a.865.865,0,0,0,.13-1.058l-.435-.727.821-.206a.865.865,0,0,0,.657-.84v-2.427A.865.865,0,0,0,290.54,111.545Zm-1.076,2.59-.845.212a.864.864,0,0,0-.609.557,3.791,3.791,0,0,1-.172.424.865.865,0,0,0,.036.823l.446.745-.759.759-.745-.446a.858.858,0,0,0-.823-.036,3.8,3.8,0,0,1-.424.172.864.864,0,0,0-.557.609l-.212.844h-1.073l-.212-.844a.864.864,0,0,0-.557-.609,3.8,3.8,0,0,1-.424-.172.864.864,0,0,0-.823.036l-.745.446-.759-.759.446-.745a.864.864,0,0,0,.036-.823,3.8,3.8,0,0,1-.172-.424.864.864,0,0,0-.609-.557l-.845-.212v-1.073l.845-.212a.864.864,0,0,0,.609-.557,3.8,3.8,0,0,1,.172-.424.864.864,0,0,0-.036-.823l-.446-.745.759-.759.745.446a.864.864,0,0,0,.823.036,3.8,3.8,0,0,1,.424-.172.864.864,0,0,0,.557-.609l.212-.844H284.8l.212.844a.864.864,0,0,0,.557.609,3.8,3.8,0,0,1,.424.172.862.862,0,0,0,.823-.036l.745-.446.759.759-.446.745a.865.865,0,0,0-.036.823,3.794,3.794,0,0,1,.172.424.864.864,0,0,0,.609.557l.845.212Z" transform="translate(-254.804 -98.002)" fill="#2c2863"/>
      <path id="Path_5737" data-name="Path 5737" d="M333.266,160a2.6,2.6,0,1,0,2.6,2.6A2.6,2.6,0,0,0,333.266,160Zm0,3.466a.867.867,0,1,1,.867-.867A.867.867,0,0,1,333.266,163.466Z" transform="translate(-303.806 -147.003)" fill="#2c2863"/>
      <path id="Path_5738" data-name="Path 5738" d="M77,234.667H64.867a.867.867,0,1,0,0,1.733H77a.867.867,0,1,0,0-1.733Z" transform="translate(-58.801 -215.604)" fill="#2c2863"/>
      <path id="Path_5739" data-name="Path 5739" d="M71.8,277.333H64.867a.867.867,0,1,0,0,1.733H71.8a.867.867,0,1,0,0-1.733Z" transform="translate(-58.801 -254.804)" fill="#2c2863"/>
    </g>
  </g>
</svg>
