<svg xmlns="http://www.w3.org/2000/svg" width="12.605" height="12.604" viewBox="0 0 12.605 12.604"><defs><style>.a{fill:#d8d8d8;}</style></defs><g transform="translate(0 0)"><path class="a" d="M13.274,10.741l-2.551-1.7a.745.745,0,0,0-1,.162l-.743.956a.318.318,0,0,1-.407.086l-.141-.078A8.543,8.543,0,0,1,6.208,8.417,8.578,8.578,0,0,1,4.459,6.19l-.078-.141a.318.318,0,0,1,.084-.409L5.42,4.9a.745.745,0,0,0,.162-1l-1.7-2.551a.741.741,0,0,0-1-.225l-1.067.641a1.5,1.5,0,0,0-.686.891c-.384,1.4-.1,3.816,3.464,7.375,2.831,2.831,4.938,3.592,6.387,3.592a3.721,3.721,0,0,0,.987-.129,1.5,1.5,0,0,0,.891-.686L13.5,11.74A.741.741,0,0,0,13.274,10.741Zm-.137.783-.64,1.067a1.086,1.086,0,0,1-.641.5c-1.292.355-3.55.061-6.966-3.356S1.18,4.059,1.535,2.767a1.087,1.087,0,0,1,.5-.641L3.1,1.485a.321.321,0,0,1,.433.1L4.456,2.97l.776,1.163a.323.323,0,0,1-.07.433l-.955.743a.735.735,0,0,0-.195.944l.076.138A8.911,8.911,0,0,0,5.908,8.714a8.92,8.92,0,0,0,2.323,1.82l.138.076a.735.735,0,0,0,.944-.195l.743-.955a.323.323,0,0,1,.433-.07l2.551,1.7A.321.321,0,0,1,13.137,11.525Z" transform="translate(-1 -1.018)"/><path class="a" d="M282.838,69.744a3.575,3.575,0,0,1,3.571,3.571.21.21,0,1,0,.42,0,4,4,0,0,0-3.991-3.991.21.21,0,0,0,0,.42Z" transform="translate(-275.696 -67.643)"/><path class="a" d="M282.838,120.944a2.313,2.313,0,0,1,2.311,2.311.21.21,0,1,0,.42,0,2.734,2.734,0,0,0-2.731-2.731.21.21,0,0,0,0,.42Z" transform="translate(-275.696 -117.582)"/><path class="a" d="M282.838,172.144a1.052,1.052,0,0,1,1.05,1.05.21.21,0,1,0,.42,0,1.472,1.472,0,0,0-1.47-1.47.21.21,0,0,0,0,.42Z" transform="translate(-275.696 -167.522)"/></g></svg>