<svg id="referral" xmlns="http://www.w3.org/2000/svg" width="20" height="21.588" viewBox="0 0 20 21.588">
  <path id="Path_477" data-name="Path 477" d="M84.39,46.04v1.981a.4.4,0,0,1-.4.4H75.88a.4.4,0,0,1-.4-.4V46.04C75.484,40.678,84.39,40.635,84.39,46.04Zm-2.534,4.681a.4.4,0,0,1-.559.559l-1-1-.023,2.805a.4.4,0,0,1-.4.4H74.042a.4.4,0,0,1,0-.791h5.45l.021-2.393-.98.98a.4.4,0,0,1-.559-.559l1.662-1.661a.4.4,0,0,1,.559,0ZM73.3,55.1v1.981a.4.4,0,0,1-.4.4H64.786a.4.4,0,0,1-.4-.4V55.1c0-5.362,8.906-5.4,8.906,0Zm-4.453-10.15a2.787,2.787,0,1,1-2.786,2.786A2.787,2.787,0,0,1,68.843,44.951Zm0,.791a2,2,0,1,0,2,2A2,2,0,0,0,68.843,45.742Zm.659,6.14V53.5a.2.2,0,0,1-.037.115l-.452.69a.2.2,0,0,1-.335-.006l-.459-.689a.2.2,0,0,1-.032-.12V51.882a3.238,3.238,0,0,0-3,3.219v1.586h7.324V55.1a3.239,3.239,0,0,0-3-3.219ZM79.937,35.89a2.787,2.787,0,1,1-2.787,2.786A2.787,2.787,0,0,1,79.937,35.89Zm0,.791a2,2,0,1,0,2,2A2,2,0,0,0,79.937,36.681Zm.658,6.14v1.618a.2.2,0,0,1-.037.115l-.453.69a.2.2,0,0,1-.334-.006l-.459-.69a.2.2,0,0,1-.033-.12V42.82a3.238,3.238,0,0,0-3,3.219v1.586H83.6V46.04A3.239,3.239,0,0,0,80.6,42.82Z" transform="translate(-64.39 -35.89)" fill="#fff" fill-rule="evenodd"/>
</svg>
