<svg id="unlock" xmlns="http://www.w3.org/2000/svg" width="28.958" height="36.866" viewBox="0 0 28.958 36.866">
  <g id="Group_1248" data-name="Group 1248" transform="translate(0 0)">
    <g id="Group_1247" data-name="Group 1247" transform="translate(0 0)">
      <path id="Path_1183" data-name="Path 1183" d="M78.908,13.172H56.531V11.856A9.214,9.214,0,0,1,74.289,8.4a1.316,1.316,0,0,0,2.44-.987A11.847,11.847,0,0,0,53.9,11.856v1.316H52.582a1.316,1.316,0,0,0-1.316,1.316v21.06a1.316,1.316,0,0,0,1.316,1.316H78.908a1.316,1.316,0,0,0,1.316-1.316V14.489A1.316,1.316,0,0,0,78.908,13.172Zm-1.316,21.06H53.9V15.8H77.592Z" transform="translate(-51.266 0.001)" fill="#2c2863"/>
    </g>
  </g>
  <g id="Group_1250" data-name="Group 1250" transform="translate(10.529 19.737)">
    <g id="Group_1249" data-name="Group 1249" transform="translate(0)">
      <path id="Path_1184" data-name="Path 1184" d="M195.46,258.54a3.949,3.949,0,1,0-5.039,5.039v2.875a1.316,1.316,0,0,0,2.633,0V263.58A3.949,3.949,0,0,0,195.46,258.54Zm-3.723,2.649a1.316,1.316,0,1,1,1.316-1.316A1.316,1.316,0,0,1,191.737,261.189Z" transform="translate(-187.787 -255.907)" fill="#2c2863"/>
    </g>
  </g>
</svg>
