<svg id="Layer_1-2" xmlns="http://www.w3.org/2000/svg" width="28.47" height="28.496" viewBox="0 0 28.47 28.496">
  <g id="Group_5604" data-name="Group 5604" transform="translate(0 2.086)">
    <path id="Path_5016" data-name="Path 5016" d="M19.828,24.62H9.792A.812.812,0,0,1,9,23.828V13.792A.812.812,0,0,1,9.792,13H19.828a.812.812,0,0,1,.792.792V23.828A.778.778,0,0,1,19.828,24.62Zm-9.243-1.585h8.451V14.585H10.585Z" transform="translate(-9 -13)" fill="#2c2863"/>
  </g>
  <g id="Group_5605" data-name="Group 5605" transform="translate(12.703)">
    <path id="Path_5017" data-name="Path 5017" d="M40.946,24.816a.794.794,0,0,1-.581-.211l-7.078-7.131a.766.766,0,0,1,0-1.109l7.131-7.078a.766.766,0,0,1,1.109,0l7.078,7.078a.794.794,0,0,1,.211.581,1.108,1.108,0,0,1-.211.581l-7.078,7.078A.794.794,0,0,1,40.946,24.816Zm-5.969-7.87,5.969,5.969,5.969-5.969-5.969-6.021Z" transform="translate(-33.05 -9.05)" fill="#2c2863"/>
  </g>
  <g id="Group_5606" data-name="Group 5606" transform="translate(0 16.876)">
    <path id="Path_5018" data-name="Path 5018" d="M19.828,52.62H9.792A.812.812,0,0,1,9,51.828V41.792A.812.812,0,0,1,9.792,41H19.828a.812.812,0,0,1,.792.792V51.828A.778.778,0,0,1,19.828,52.62Zm-9.243-1.585h8.451V42.585H10.585Z" transform="translate(-9 -41)" fill="#2c2863"/>
  </g>
  <g id="Group_5607" data-name="Group 5607" transform="translate(14.789 16.876)">
    <path id="Path_5019" data-name="Path 5019" d="M47.828,52.62H37.792A.812.812,0,0,1,37,51.828V41.792A.812.812,0,0,1,37.792,41H47.828a.812.812,0,0,1,.792.792V51.828A.778.778,0,0,1,47.828,52.62Zm-9.243-1.585h8.451V42.585H38.585Z" transform="translate(-37 -41)" fill="#2c2863"/>
  </g>
</svg>
