<svg id="config_dash" xmlns="http://www.w3.org/2000/svg" width="28.752" height="28.752" viewBox="0 0 28.752 28.752">
  <g id="Group_3604" data-name="Group 3604">
    <g id="Group_3603" data-name="Group 3603">
      <path id="Path_5121" data-name="Path 5121" d="M26.877,11.251h-2.34A10.579,10.579,0,0,0,23.772,9.4l1.653-1.653a1.878,1.878,0,0,0,0-2.653L23.656,3.327a1.922,1.922,0,0,0-2.653,0L19.35,4.98A10.607,10.607,0,0,0,17.5,4.215V1.875A1.877,1.877,0,0,0,15.626,0h-2.5a1.877,1.877,0,0,0-1.875,1.875v2.34A10.627,10.627,0,0,0,9.4,4.98L7.748,3.327a1.878,1.878,0,0,0-2.653,0L3.326,5.1a1.879,1.879,0,0,0,0,2.653L4.979,9.4a10.607,10.607,0,0,0-.765,1.849H1.875A1.877,1.877,0,0,0,0,13.127v2.5A1.877,1.877,0,0,0,1.875,17.5h2.34A10.627,10.627,0,0,0,4.98,19.35L3.327,21a1.878,1.878,0,0,0,0,2.653L5.1,25.426a1.879,1.879,0,0,0,2.653,0L9.4,23.773a10.606,10.606,0,0,0,1.849.765v2.339a1.877,1.877,0,0,0,1.875,1.875h2.5A1.877,1.877,0,0,0,17.5,26.877v-2.34a10.607,10.607,0,0,0,1.849-.765L21,25.426a1.923,1.923,0,0,0,2.653,0l1.769-1.769a1.877,1.877,0,0,0,0-2.653L23.773,19.35a10.606,10.606,0,0,0,.765-1.849h2.34a1.877,1.877,0,0,0,1.875-1.875v-2.5A1.877,1.877,0,0,0,26.877,11.251Zm.625,4.375a.626.626,0,0,1-.625.625H24.064a.625.625,0,0,0-.605.469,9.4,9.4,0,0,1-1,2.42.626.626,0,0,0,.1.759l1.988,1.988a.628.628,0,0,1,0,.885l-1.769,1.769a.644.644,0,0,1-.885,0L19.9,22.554a.626.626,0,0,0-.76-.1,9.362,9.362,0,0,1-2.42,1,.624.624,0,0,0-.468.6v2.813a.626.626,0,0,1-.625.625h-2.5a.626.626,0,0,1-.625-.625V24.064a.625.625,0,0,0-.469-.605,9.372,9.372,0,0,1-2.42-1,.618.618,0,0,0-.318-.087.625.625,0,0,0-.443.183L6.864,24.541a.627.627,0,0,1-.885,0L4.21,22.773a.626.626,0,0,1,0-.885L6.2,19.9a.624.624,0,0,0,.1-.759,9.385,9.385,0,0,1-1-2.42.624.624,0,0,0-.6-.469H1.875a.626.626,0,0,1-.625-.625v-2.5a.626.626,0,0,1,.625-.625H4.688a.625.625,0,0,0,.605-.469,9.372,9.372,0,0,1,1-2.42.624.624,0,0,0-.1-.759L4.211,6.865a.627.627,0,0,1,0-.885L5.98,4.211a.626.626,0,0,1,.885,0L8.853,6.2a.623.623,0,0,0,.759.1,9.385,9.385,0,0,1,2.42-1,.625.625,0,0,0,.469-.605V1.875a.626.626,0,0,1,.625-.625h2.5a.626.626,0,0,1,.625.625V4.688a.625.625,0,0,0,.469.605,9.362,9.362,0,0,1,2.42,1,.624.624,0,0,0,.76-.1l1.988-1.988a.642.642,0,0,1,.885,0L24.541,5.98a.628.628,0,0,1,0,.885L22.554,8.853a.625.625,0,0,0-.1.759,9.386,9.386,0,0,1,1,2.42.624.624,0,0,0,.6.469h2.813a.626.626,0,0,1,.625.625Z" fill="#2c2863"/>
    </g>
  </g>
  <g id="Group_3606" data-name="Group 3606" transform="translate(8.751 8.751)">
    <g id="Group_3605" data-name="Group 3605">
      <path id="Path_5122" data-name="Path 5122" d="M117.625,112a5.625,5.625,0,1,0,5.625,5.625A5.632,5.632,0,0,0,117.625,112Zm0,10A4.375,4.375,0,1,1,122,117.625,4.38,4.38,0,0,1,117.625,122Z" transform="translate(-112 -112)" fill="#2c2863"/>
    </g>
  </g>
</svg>
