<svg xmlns="http://www.w3.org/2000/svg" width="95.486" height="68.817" viewBox="0 0 95.486 68.817">
  <g id="low-code-configuration" transform="translate(0 -71.5)">
    <g id="Group_4911" data-name="Group 4911" transform="translate(0 71.5)">
      <path id="Path_4934" data-name="Path 4934" d="M88.492,71.5h-4.9a1.4,1.4,0,0,0,0,2.8h4.9a4.2,4.2,0,0,1,4.2,4.2v6.434H2.8V78.494a4.2,4.2,0,0,1,4.2-4.2H77.452a1.4,1.4,0,1,0,0-2.8H6.994A7,7,0,0,0,0,78.494V93.917a1.409,1.409,0,0,0,1.4,1.4,1.409,1.409,0,0,0,1.4-1.4V87.725H92.688v36.068a1.4,1.4,0,0,0,2.8,0v-45.3A7,7,0,0,0,88.492,71.5Z" transform="translate(0 -71.5)" fill="#007cc3"/>
      <path id="Path_4935" data-name="Path 4935" d="M94.087,246.165a1.409,1.409,0,0,0-1.4,1.4V251.2a4.2,4.2,0,0,1-4.2,4.2H6.994a4.2,4.2,0,0,1-4.2-4.2V217.8a1.4,1.4,0,0,0-2.8,0v33.4a7,7,0,0,0,6.994,6.994h81.5a7,7,0,0,0,6.994-6.994v-3.637A1.409,1.409,0,0,0,94.087,246.165Z" transform="translate(0 -189.377)" fill="#007cc3"/>
      <path id="Path_4936" data-name="Path 4936" d="M61.4,232.731a1.407,1.407,0,0,0-1.977,0l-8.411,8.411a1.4,1.4,0,0,0,0,1.977l8.3,8.3a1.4,1.4,0,0,0,1.977,0,1.407,1.407,0,0,0,0-1.977l-7.311-7.311,7.423-7.423a1.407,1.407,0,0,0,0-1.977Z" transform="translate(-41.163 -202.332)" fill="#007cc3"/>
      <path id="Path_4937" data-name="Path 4937" d="M207.043,251.318a1.4,1.4,0,0,0,1.977,0l8.3-8.3a1.4,1.4,0,0,0,0-1.977l-8.411-8.411a1.4,1.4,0,0,0-1.977,1.977l7.423,7.423-7.311,7.311a1.407,1.407,0,0,0,0,1.977Z" transform="translate(-168.009 -202.251)" fill="#007cc3"/>
      <path id="Path_4938" data-name="Path 4938" d="M125.9,235.782a1.386,1.386,0,0,0,1.305-.9l9.94-26.184a1.4,1.4,0,0,0-2.63-.988L124.593,233.9a1.406,1.406,0,0,0,.8,1.809,1.571,1.571,0,0,0,.5.075Z" transform="translate(-101.281 -181.568)" fill="#007cc3"/>
      <path id="Path_4939" data-name="Path 4939" d="M33,97.1a4.2,4.2,0,1,0,4.2-4.2A4.2,4.2,0,0,0,33,97.1Zm5.595,0a1.4,1.4,0,1,1-1.4-1.4A1.409,1.409,0,0,1,38.595,97.1Z" transform="translate(-26.846 -88.909)" fill="#007cc3"/>
      <path id="Path_4940" data-name="Path 4940" d="M91.2,97.1a4.2,4.2,0,1,0,4.2-4.2A4.2,4.2,0,0,0,91.2,97.1Zm5.595,0a1.4,1.4,0,1,1-1.4-1.4A1.409,1.409,0,0,1,96.795,97.1Z" transform="translate(-74.192 -88.909)" fill="#007cc3"/>
      <path id="Path_4941" data-name="Path 4941" d="M149.3,97.1a4.2,4.2,0,1,0,4.2-4.2A4.2,4.2,0,0,0,149.3,97.1Zm5.595,0a1.4,1.4,0,1,1-1.4-1.4A1.409,1.409,0,0,1,154.895,97.1Z" transform="translate(-121.456 -88.909)" fill="#007cc3"/>
      <path id="Path_4942" data-name="Path 4942" d="M317.2,205.792h8.765a4.2,4.2,0,1,0,0-8.392H317.2a4.2,4.2,0,1,0,0,8.392Zm0-5.595h8.765a1.4,1.4,0,1,1,0,2.8H317.2a1.4,1.4,0,1,1,0-2.8Z" transform="translate(-254.627 -173.92)" fill="#007cc3"/>
      <path id="Path_4943" data-name="Path 4943" d="M317.2,265.792h23.125a4.2,4.2,0,0,0,0-8.392H317.2a4.2,4.2,0,1,0,0,8.392Zm0-5.595h23.125a1.4,1.4,0,0,1,0,2.8H317.2a1.4,1.4,0,1,1,0-2.8Z" transform="translate(-254.627 -222.73)" fill="#007cc3"/>
      <path id="Path_4944" data-name="Path 4944" d="M317.2,325.792h16.262a4.2,4.2,0,0,0,0-8.392H317.2a4.2,4.2,0,1,0,0,8.392Zm0-5.595h16.262a1.4,1.4,0,0,1,0,2.8H317.2a1.4,1.4,0,1,1,0-2.8Z" transform="translate(-254.627 -271.541)" fill="#007cc3"/>
    </g>
  </g>
</svg>
