<svg xmlns="http://www.w3.org/2000/svg" width="26.143" height="34.485" viewBox="0 0 26.143 34.485">
  <g id="Line" transform="translate(-7.344 -2.037)">
    <path id="Path_5576" data-name="Path 5576" d="M8.722,8.809A15.712,15.712,0,0,1,30.467,7.241l-.894.3a.784.784,0,0,0,.251,1.53c.055.063,2.353-.784,2.463-.784a.784.784,0,0,0,.675-.784V5.146a.784.784,0,1,0-1.569,0V5.93c-6.8-5.852-17.98-5-23.848,1.828A.789.789,0,0,0,8.722,8.809Z" transform="translate(0 0)" fill="#fff"/>
    <path id="Path_5577" data-name="Path 5577" d="M32.24,37.259a15.69,15.69,0,0,1-21.746,1.569l.894-.259a.786.786,0,0,0-.5-1.491l-2.353.784A.784.784,0,0,0,8,38.569v2.353a.784.784,0,0,0,1.569,0v-.784c6.8,5.884,17.98,5.028,23.848-1.8a.8.8,0,0,0-1.177-1.083Z" transform="translate(-0.141 -7.535)" fill="#fff"/>
    <path id="Path_5578" data-name="Path 5578" d="M22.491,17A5.491,5.491,0,0,0,17,22.491c.259,7.264,10.724,7.264,10.983,0A5.491,5.491,0,0,0,22.491,17Zm0,9.414a3.923,3.923,0,0,1,0-7.845A3.923,3.923,0,0,1,22.491,26.414Z" transform="translate(-2.081 -3.225)" fill="#fff"/>
    <path id="Path_5579" data-name="Path 5579" d="M31.75,23.905a.784.784,0,0,0,.784-.784V18.414a.784.784,0,0,0-.784-.784H29.64c-.11-.314-.243-.62-.377-.918l1.491-1.491a.8.8,0,0,0,0-1.114l-3.326-3.326a.784.784,0,0,0-1.114,0l-1.491,1.491c-.3-.133-.6-.267-.918-.377V9.784A.784.784,0,0,0,23.121,9H18.414a.784.784,0,0,0-.784.784v2.11c-.314.11-.62.243-.918.377l-1.491-1.491a.784.784,0,0,0-1.114,0l-3.326,3.326a.784.784,0,0,0,0,1.114l1.491,1.491c-.133.3-.267.6-.377.918H9.784A.784.784,0,0,0,9,18.414v4.707a.784.784,0,0,0,.784.784h2.11c.11.314.243.62.377.918l-1.491,1.491a.784.784,0,0,0,0,1.114l3.326,3.326a.784.784,0,0,0,1.114,0l1.491-1.491c.3.133.6.267.918.377v2.11a.784.784,0,0,0,.784.784h4.707a.784.784,0,0,0,.784-.784V29.64c.314-.11.62-.243.918-.377l1.491,1.491a.784.784,0,0,0,1.114,0l3.326-3.326a.784.784,0,0,0,0-1.114l-1.491-1.491c.133-.3.267-.6.377-.918Zm-4,1.624L29.09,26.87l-2.22,2.22-1.341-1.349c-.73-.667-1.757.486-2.62.565a.784.784,0,0,0-.573.784v1.875H19.2v-1.9a.784.784,0,0,0-.573-.784c-.871-.078-1.875-1.232-2.62-.565l-1.341,1.349-2.22-2.22,1.341-1.341c.675-.73-.479-1.757-.557-2.62a.784.784,0,0,0-.784-.573H10.569V19.2h1.9a.784.784,0,0,0,.784-.573c.078-.871,1.232-1.891.565-2.62l-1.349-1.341,2.22-2.22c2.22,2.228,1.263,1.679,3.962.784a.784.784,0,0,0,.573-.784V10.569H22.36v1.9a.784.784,0,0,0,.573.784c.871.078,1.875,1.232,2.62.565l1.341-1.349,2.22,2.22c-2.228,2.22-1.679,1.263-.784,3.962a.784.784,0,0,0,.784.573h1.851V22.36h-1.9a.784.784,0,0,0-.784.573c-.055.847-1.239,1.867-.533,2.6Z" transform="translate(-0.357 -1.501)" fill="#fff"/>
  </g>
</svg>
