<svg id="video-call" xmlns="http://www.w3.org/2000/svg" width="36.905" height="39.214" viewBox="0 0 36.905 39.214">
  <g id="Group_5369" data-name="Group 5369" transform="translate(0 0)">
    <g id="Group_5368" data-name="Group 5368">
      <path id="Path_4981" data-name="Path 4981" d="M32.658,121H4.247A4.38,4.38,0,0,0,0,125.513v24.171A4.38,4.38,0,0,0,4.247,154.2H5.663v4.513a1.475,1.475,0,0,0,1.416,1.5,1.291,1.291,0,0,0,.991-.451l5.267-5.566H32.658a4.38,4.38,0,0,0,4.247-4.513V125.513A4.38,4.38,0,0,0,32.658,121Zm-1.416,22.566a1.6,1.6,0,0,1-.595,1.234,1.326,1.326,0,0,1-1.274.18l-6.626-2.347v.933a1.448,1.448,0,0,1-1.416,1.5H7.079a1.448,1.448,0,0,1-1.416-1.5V131.531a1.448,1.448,0,0,1,1.416-1.5H21.331a1.448,1.448,0,0,1,1.416,1.5v.933l6.626-2.347a1.367,1.367,0,0,1,1.274.18,1.6,1.6,0,0,1,.595,1.234v12.035Z" transform="translate(0 -121)" fill="#fd577e"/>
    </g>
  </g>
</svg>
